<svg width="38" height="37" viewBox="0 0 38 37" fill="none" xmlns="http://www.w3.org/2000/svg">
<circle cx="18.6758" cy="18.5" r="18.5" fill="white"/>
<path d="M20.5722 25.488L19.8822 26.208C18.7781 27.3303 17.2947 27.9537 15.7534 27.9431C14.212 27.9326 12.7366 27.289 11.6467 26.1516C10.5567 25.0143 9.93992 23.4748 9.92981 21.8664C9.9197 20.258 10.5171 18.7101 11.5926 17.558L12.2826 16.838M16.4274 21.162L20.5722 16.837M16.4274 12.512L17.1184 11.792C18.2177 10.6451 19.7086 10.0007 21.2632 10.0007C22.8177 10.0007 24.3086 10.6451 25.408 11.792M24.718 21.162L25.408 20.442C25.9663 19.8607 26.4062 19.1674 26.701 18.404C26.9958 17.6406 27.1395 16.8229 27.1234 16" stroke="#4A4A4A" stroke-width="1.63235" stroke-linecap="round"/>
</svg>
