<svg width="37" height="37" viewBox="0 0 37 37" fill="none" xmlns="http://www.w3.org/2000/svg">
<circle cx="18.5" cy="18.5" r="18.5" fill="white"/>
<path d="M26.1719 10.7845C25.1742 9.77672 23.9858 8.97767 22.6761 8.43397C21.3663 7.89027 19.9614 7.6128 18.5433 7.61774C12.6016 7.61774 7.75893 12.4604 7.75893 18.4022C7.75893 20.3066 8.25952 22.1566 9.1954 23.7889L7.67188 29.3824L13.3851 27.8807C14.9631 28.7404 16.7369 29.1974 18.5433 29.1974C24.4851 29.1974 29.3278 24.3548 29.3278 18.413C29.3278 15.5292 28.2069 12.8195 26.1719 10.7845ZM18.5433 27.3692C16.9328 27.3692 15.3548 26.9339 13.9728 26.1177L13.6463 25.9219L10.251 26.8142L11.1542 23.506L10.9366 23.1686C10.0418 21.7397 9.56665 20.0881 9.5654 18.4022C9.5654 13.4616 13.5919 9.43509 18.5325 9.43509C20.9266 9.43509 23.1792 10.371 24.866 12.0686C25.7012 12.9 26.3631 13.8889 26.8133 14.9779C27.2635 16.067 27.493 17.2346 27.4886 18.413C27.5104 23.3536 23.4839 27.3692 18.5433 27.3692ZM23.4622 20.6657C23.1901 20.5351 21.8625 19.8822 21.6231 19.7842C21.3728 19.6972 21.1986 19.6536 21.0136 19.9148C20.8286 20.1869 20.3172 20.7963 20.1648 20.9704C20.0125 21.1554 19.8492 21.1772 19.5772 21.0357C19.3051 20.9051 18.4345 20.6113 17.4116 19.6972C16.6063 18.9789 16.0731 18.0974 15.9098 17.8254C15.7575 17.5533 15.8881 17.4119 16.0295 17.2704C16.1492 17.1507 16.3016 16.9548 16.4322 16.8024C16.5628 16.6501 16.6172 16.5304 16.7042 16.3563C16.7913 16.1713 16.7478 16.0189 16.6825 15.8883C16.6172 15.7577 16.0731 14.4301 15.8554 13.886C15.6378 13.3636 15.4092 13.4289 15.246 13.418H14.7236C14.5386 13.418 14.2557 13.4833 14.0054 13.7554C13.766 14.0274 13.0695 14.6804 13.0695 16.008C13.0695 17.3357 14.0381 18.6198 14.1686 18.7939C14.2992 18.9789 16.0731 21.6995 18.7719 22.8639C19.4139 23.1469 19.9145 23.3101 20.3063 23.4298C20.9483 23.6366 21.536 23.6039 22.0039 23.5386C22.5263 23.4624 23.6036 22.8857 23.8213 22.2545C24.0498 21.6233 24.0498 21.0901 23.9736 20.9704C23.8975 20.8507 23.7342 20.7963 23.4622 20.6657Z" fill="#4A4A4A"/>
</svg>
