<svg width="38" height="37" viewBox="0 0 38 37" fill="none" xmlns="http://www.w3.org/2000/svg">
<circle cx="19.6319" cy="17.9559" r="12.5147" fill="#4A4A4A"/>
<path d="M19.0879 0C8.8705 0 0.587891 8.2826 0.587891 18.5C0.587891 28.7174 8.8705 37 19.0879 37C29.3053 37 37.5879 28.7174 37.5879 18.5C37.5879 8.2826 29.3053 0 19.0879 0ZM26.6132 15.1546C26.6209 15.3126 26.6228 15.4706 26.6228 15.6248C26.6228 20.4425 22.9594 25.9944 16.257 25.9944C14.2765 25.9977 12.3373 25.4289 10.6723 24.3564C10.9556 24.3911 11.2466 24.4046 11.5414 24.4046C13.2488 24.4046 14.8194 23.8245 16.0662 22.8456C15.3064 22.8307 14.5702 22.5791 13.9601 22.1258C13.3501 21.6726 12.8967 21.0404 12.663 20.3172C13.2087 20.421 13.7708 20.3993 14.3068 20.2536C13.4821 20.0869 12.7405 19.64 12.2076 18.9888C11.6748 18.3376 11.3836 17.5222 11.3834 16.6808V16.6365C11.8748 16.9082 12.4375 17.074 13.0349 17.0932C12.2618 16.5786 11.7145 15.788 11.5049 14.8831C11.2954 13.9783 11.4394 13.0276 11.9076 12.2254C12.8229 13.3508 13.9643 14.2715 15.2579 14.9278C16.5516 15.5841 17.9687 15.9614 19.4174 16.0353C19.2332 15.2535 19.3125 14.4327 19.6429 13.7006C19.9733 12.9685 20.5363 12.3661 21.2444 11.987C21.9525 11.6079 22.7661 11.4733 23.5585 11.6043C24.351 11.7352 25.078 12.1243 25.6265 12.711C26.442 12.5497 27.224 12.2506 27.939 11.8265C27.6672 12.6708 27.0981 13.3878 26.3376 13.8442C27.0599 13.7572 27.7653 13.563 28.4304 13.268C27.9418 14.0001 27.3264 14.639 26.6132 15.1546Z" fill="white"/>
</svg>
