<svg width="105" height="23" viewBox="0 0 105 23" fill="none" xmlns="http://www.w3.org/2000/svg">
<g clip-path="url(#clip0_261_5153)">
<path d="M103.413 5.36245C103.384 5.66823 103.337 5.97202 103.272 6.27221C103.2 6.56998 102.524 8.24639 102.474 8.52029C102.444 8.78952 102.43 9.06038 102.432 9.33132C102.226 9.42102 101.754 9.77388 101.503 9.77388C101.252 9.77388 100.654 9.19811 100.395 9.13395C100.395 8.42815 100.577 8.36895 100.513 8.00203C100.411 7.57911 100.263 7.16847 100.072 6.77727C100 6.59603 99.9817 6.39788 100.019 6.2064C99.9669 6.28149 99.9306 6.36609 99.9114 6.45531C99.8929 6.54454 99.8921 6.63663 99.9084 6.72626C99.9735 7.11698 100.287 7.70512 100.33 7.96011C100.372 8.21509 100.361 8.5137 100.263 8.57868C99.5598 8.50245 98.8797 8.28155 98.2662 7.92968C97.7926 7.65798 97.3034 7.41355 96.8017 7.1976C97.1006 6.56839 97.4766 5.97874 97.9206 5.44224C98.2892 4.99732 98.728 4.6158 99.2202 4.31286C99.8943 3.97338 100.648 3.82515 101.4 3.8843C101.861 3.93592 102.315 4.02561 102.76 4.15246C102.76 4.15246 103.195 3.79135 103.528 3.90568C103.432 4.15657 103.325 4.41403 103.325 4.41403L103.757 4.66574C103.627 4.89003 103.512 5.12217 103.412 5.36081L103.413 5.36245ZM83.9949 11.8089C84.0023 12.3442 84.1933 12.8607 84.5359 13.2722C84.5359 13.2722 84.5433 13.2805 84.547 13.2838C84.439 12.9349 84.3509 12.58 84.2843 12.221V11.5095C84.3709 11.0101 84.5204 10.5236 84.7291 10.0618C84.7291 10.0618 84.7291 10.0675 84.7232 10.0675L84.7002 10.0873C84.5174 10.2658 84.3642 10.4727 84.248 10.7001L84.2221 10.7519C84.0948 11.0167 84.0201 11.3035 84.0009 11.5967C83.9972 11.6543 83.992 11.711 83.992 11.7686C83.992 11.7801 83.992 11.7933 83.992 11.8081L83.9949 11.8089ZM95.81 8.02919C95.8462 8.00817 95.8773 7.97783 95.8988 7.94119C95.9595 7.84609 96.015 7.74718 96.0631 7.64507C96.0631 7.45835 95.6694 7.48056 95.585 7.41064C95.5014 7.34073 95.4636 7.24612 95.3326 7.18855L95.3267 7.20828C95.3267 7.24284 95.3267 7.29054 95.3267 7.33414C95.3496 7.4557 95.3608 7.57905 95.3608 7.70265C95.3637 7.86158 95.3445 8.02016 95.3045 8.17402C95.3778 8.20125 95.4496 8.23315 95.5184 8.26941C95.6005 8.17268 95.699 8.09135 95.81 8.02919ZM95.7648 6.59384L94.2307 4.87138L93.236 5.70135L93.2738 5.82227C93.3078 5.90691 93.3478 5.98932 93.3922 6.06904C93.4418 6.15466 93.4965 6.23707 93.5565 6.3158C93.6253 6.40522 93.6993 6.48986 93.78 6.56916C93.7911 6.58067 93.8051 6.59054 93.8148 6.60206C94.0323 6.80646 94.2877 6.96582 94.5667 7.07092C94.731 7.1313 94.9034 7.16464 95.0773 7.16963L95.7619 6.59384H95.7648ZM95.0196 3.74446V3.29124C95.0225 3.26495 95.0203 3.23828 95.0122 3.21302C95.004 3.18776 94.9907 3.1645 94.973 3.14482C94.9138 3.11603 94.8583 3.07951 94.8087 3.03623C94.7916 3.02308 94.7746 3.0058 94.7598 2.99347C94.654 3.01609 94.5437 3.00367 94.446 2.95809C94.3905 2.94017 94.3387 2.9123 94.2936 2.87583C94.2669 2.85268 94.2455 2.82436 94.2299 2.79255C94.2144 2.76074 94.2048 2.72612 94.2033 2.69076C94.1522 2.69076 94.1027 2.685 94.0553 2.67924V2.97454C94.0553 2.98606 94.0612 3.00005 94.0642 3.01074C94.0923 3.10821 94.0982 3.2109 94.0797 3.31079C94.0619 3.41067 94.0212 3.50505 93.9606 3.58653C93.8954 3.67855 93.8088 3.75383 93.7089 3.80628C93.609 3.85873 93.498 3.88686 93.3848 3.88841C93.3737 3.97444 93.3737 4.0615 93.3848 4.14752C93.3952 4.22978 93.4773 4.43953 93.5106 4.55881C93.5839 4.76647 93.6253 4.9838 93.6342 5.2037L93.8614 5.01286C93.8118 4.83108 93.7585 4.64188 93.7075 4.45516C93.6719 4.32684 93.6357 4.20099 93.6046 4.07596C93.7311 4.05121 93.851 4.00049 93.9569 3.927C94.0619 3.85351 94.1515 3.75886 94.2188 3.64905C94.3476 3.69346 94.4793 3.7281 94.6126 3.75269H95.0122L95.0196 3.74446ZM95.5954 3.16127C95.6568 3.1004 95.6427 2.94987 95.5258 2.69652C95.4836 2.64186 95.4362 2.5912 95.3844 2.54517C95.2941 2.58959 95.2571 2.59287 95.2261 2.6085C95.2009 2.64875 95.1735 2.68724 95.1432 2.72366C95.1232 2.74752 95.0692 2.73846 95.0507 2.75574C95.0196 2.83167 94.967 2.89668 94.8989 2.94247C94.987 3.02376 95.0892 3.08793 95.2002 3.13166C95.2749 3.16127 95.5295 3.21884 95.5931 3.16127H95.5954ZM95.8884 2.12319C96.1563 1.96911 96.3865 1.75892 96.5648 1.50709C96.5152 1.49025 96.4671 1.46906 96.422 1.44375C96.2385 1.33396 96.0808 1.18512 95.9609 1.00779C95.7996 1.39556 95.545 1.73785 95.2209 2.00474C95.2364 2.03589 95.249 2.06838 95.2586 2.1018C95.2623 2.11199 95.2645 2.12245 95.266 2.13306C95.2816 2.21873 95.2816 2.3065 95.266 2.39217C95.4843 2.33061 95.693 2.24044 95.8869 2.12401L95.8884 2.12319ZM96.6514 1.3615C96.6514 1.3615 96.6559 1.3615 96.6573 1.3615C96.661 1.35772 96.6647 1.35298 96.6662 1.34768C96.6684 1.34238 96.6692 1.33668 96.6684 1.33106C96.6337 1.1868 96.5508 1.05866 96.4331 0.967484C96.3687 0.904256 96.2991 0.847498 96.2237 0.798035C96.1415 0.747859 96.0771 0.727295 96.0401 0.740456C96.0357 0.742516 96.032 0.744998 96.0283 0.747859C96.0253 0.753143 96.0224 0.758988 96.0209 0.765133C96.0135 0.784434 96.0135 0.80588 96.0209 0.825181C96.0719 0.948064 96.1497 1.05779 96.2488 1.14598C96.4139 1.31049 96.5937 1.40674 96.6507 1.36396L96.6514 1.3615ZM95.044 2.03189C95.044 2.02777 94.6555 2.06232 94.6555 2.06232C94.6555 2.06232 94.4668 2.19557 94.4423 2.30909C94.4372 2.38906 94.4372 2.46931 94.4423 2.54928L95.0484 2.56079C95.0958 2.48045 95.121 2.38842 95.1202 2.29482C95.1195 2.20123 95.0929 2.10967 95.0433 2.03024L95.044 2.03189ZM94.614 2.85856C94.9315 2.88159 94.9138 2.69405 94.9138 2.69405L94.3654 2.68582C94.3654 2.68582 94.2951 2.83635 94.6118 2.85527L94.614 2.85856ZM93.8148 2.20627C93.7659 2.15286 93.7082 2.10882 93.6431 2.0763C93.575 2.138 93.4832 2.22519 93.3966 2.291C93.3966 2.291 93.3966 2.29675 93.387 2.29675C93.3567 2.32459 93.3226 2.34811 93.2856 2.36667C93.2242 2.30593 93.1798 2.23021 93.1569 2.14704C93.1509 2.12787 93.1472 2.10795 93.1465 2.08782C93.1435 2.05875 93.1502 2.02964 93.165 2.00446C93.1798 1.97928 93.202 1.95926 93.2286 1.94716C93.2938 1.92282 93.3582 1.89396 93.4196 1.86079C93.4277 1.81443 93.4484 1.77133 93.4803 1.73658C93.4521 1.66957 93.4166 1.60607 93.3744 1.54739L93.2094 1.45033C93.1458 1.41739 93.0843 1.38001 93.0251 1.33846C93.0251 1.44293 93.0347 1.50297 93.0333 1.58523V1.61155C93.0333 1.65432 93.0333 1.69957 93.0392 1.74316C93.0392 1.82542 93.0392 1.90767 93.0392 1.98993H92.8971C92.8986 1.96255 92.8986 1.93506 92.8971 1.90767C92.8971 1.86243 92.8971 1.82048 92.8971 1.77442C92.8971 1.72836 92.8912 1.6823 92.8897 1.63541C92.8801 1.4528 92.8638 1.27841 92.8483 1.11226C92.829 1.10578 92.8098 1.10137 92.7891 1.09909L92.6825 1.08347H92.6632C92.6351 1.08347 92.6092 1.08347 92.5811 1.08347C92.5737 1.10403 92.6366 1.46678 92.6499 1.53176C92.6573 1.56631 92.7173 1.94798 92.718 1.97019V1.9817H92.5833V1.98747C92.5559 1.82295 92.5241 1.65844 92.4856 1.50133C92.4471 1.34422 92.4101 1.21754 92.3687 1.09005C92.2407 1.10614 92.1156 1.13876 91.9957 1.18711C91.9957 1.18711 91.9868 1.18711 91.9839 1.19287C91.9017 1.2284 91.824 1.27398 91.753 1.32859L91.7182 1.35491C91.6693 1.40532 91.6242 1.45831 91.5813 1.51367C91.5169 1.60168 91.4636 1.68394 91.4266 1.73905C91.4029 1.77196 91.4029 1.8172 91.377 1.86655C91.3674 1.89347 91.36 1.92094 91.3541 1.94881C91.3482 1.9779 91.3445 2.00728 91.3415 2.03682C91.3489 2.0392 91.3563 2.04222 91.363 2.04587C91.4081 2.05738 91.4503 2.0689 91.4939 2.0763C91.6064 2.10025 91.7211 2.11237 91.8366 2.11249H91.8677C91.9232 2.11269 91.9779 2.10995 92.0327 2.10427V2.11249C92.0771 2.28501 92.1667 2.44271 92.2917 2.56984C92.3887 2.6736 92.5049 2.75742 92.6336 2.81661C92.6632 2.83022 92.6936 2.84123 92.7254 2.84951C92.7432 2.85527 92.7594 2.86185 92.7794 2.86679C92.778 2.89555 92.778 2.92439 92.7794 2.95316C92.7794 2.99675 92.7794 3.04035 92.7794 3.07901L92.8897 3.09218C92.8897 3.05434 92.8897 3.01485 92.8949 2.97948C92.8927 2.96363 92.8927 2.94761 92.8949 2.93178V2.85774C92.8949 2.81332 92.8949 2.76643 92.8949 2.71873V2.64058C92.8949 2.59123 92.8949 2.54517 92.8949 2.4991V2.47525C92.8949 2.45797 92.8949 2.4407 92.8949 2.42589V2.37818H93.0318V2.50074C93.0421 2.51226 93.0525 2.52295 93.0621 2.5353C93.1125 2.58958 93.1643 2.64963 93.2138 2.70556C93.2286 2.72366 93.2434 2.74094 93.2582 2.75657C93.2619 2.75933 93.2649 2.763 93.2671 2.76726C93.273 2.77302 93.279 2.78206 93.2827 2.787C93.3197 2.83059 93.3567 2.87501 93.39 2.92025C93.4314 2.89489 93.4714 2.86541 93.5076 2.83224C93.5402 2.80339 93.5691 2.77081 93.5942 2.73518C93.6076 2.71855 93.6194 2.70125 93.6298 2.68335C93.6446 2.65917 93.6579 2.63418 93.6697 2.6085C93.6764 2.59041 93.6853 2.57396 93.6927 2.55586C93.6971 2.54793 93.7008 2.53934 93.703 2.53036C93.7163 2.49476 93.7311 2.45989 93.7474 2.42589C93.7696 2.37086 93.8081 2.32421 93.8584 2.29264C93.8466 2.25833 93.8273 2.22712 93.8022 2.20133L93.8148 2.20627ZM91.918 7.05447L91.8359 6.9681C91.8181 6.94753 91.8003 6.92779 91.7833 6.9097C91.7833 6.90559 91.7767 6.90065 91.7744 6.89653L91.2682 7.31852L92.8253 9.05661L92.886 9.00562L93.8059 8.22826C93.5054 8.14227 93.2161 8.01994 92.9445 7.86387C92.6159 7.67565 92.3117 7.44653 92.0401 7.18197C92.0335 7.17586 92.0268 7.16895 92.0216 7.1614C91.9994 7.14166 91.9802 7.12274 91.9609 7.10135C91.9446 7.08668 91.9291 7.07102 91.9143 7.05447H91.918ZM90.8079 7.6862L90.8005 7.69196L91.2608 8.06212L92.3894 8.97602L92.4716 8.87478L91.32 7.58091L91.2875 7.54637C91.2875 7.54637 91.2793 7.54637 91.2816 7.53731L91.1565 7.39748L90.8042 7.68702L90.8079 7.6862ZM90.7635 8.30641L90.7798 8.31056L91.7915 8.69798L91.8736 8.72839L90.9441 7.98811L90.9012 7.95518L90.7635 8.30641ZM83.7182 15.1123C83.6782 14.9421 83.636 14.7602 83.596 14.6188L83.283 13.5306L82.8427 12.003C82.7472 11.6686 82.7302 11.3164 82.7931 10.9742C82.856 10.632 82.9981 10.3092 83.2068 10.031C83.4162 9.75278 83.6863 9.52684 83.9979 9.37091C84.3087 9.21498 84.6514 9.13328 84.9999 9.13225C85.108 9.13254 85.216 9.14024 85.3226 9.15533C85.3959 9.14816 85.4677 9.13713 85.5394 9.1224C85.5742 9.11545 85.609 9.10531 85.6423 9.09199C85.6682 9.08377 85.6949 9.07467 85.7185 9.06483C85.7637 9.04669 85.8118 9.02612 85.8651 9.00229C85.9472 8.96447 86.0353 8.92747 86.1182 8.89291C86.5222 8.71352 86.9478 8.59015 87.3851 8.52606C87.9276 8.4488 88.4782 8.45739 89.0177 8.55152C89.3389 8.60851 89.6534 8.69724 89.9561 8.81639C90.0716 8.85702 90.19 8.88832 90.3099 8.91015C90.5052 8.91015 90.5223 8.70457 90.7635 8.70457C90.8775 8.7301 90.9878 8.76991 91.0921 8.82297C91.0921 8.82297 91.0595 8.87234 91.0588 8.87234C90.6148 9.59493 90.284 10.381 90.0775 11.2035C90.0723 11.2177 90.0679 11.2323 90.0649 11.2471C90.0553 11.2857 90.0449 11.3293 90.0353 11.368C90.0353 11.368 93.2434 12.6603 93.2508 12.666C93.2731 12.6109 93.8325 11.2611 93.8325 11.2611C93.8325 11.2611 94.4224 11.6723 94.7295 11.8533C94.7162 12.1 94.7184 12.3472 94.7354 12.5936C94.7887 13.5502 94.9611 14.9692 95.0144 15.4093C95.0603 15.4644 95.0966 15.5178 95.1698 15.5178C95.2431 15.5178 96.0749 15.4298 96.3036 15.1238L96.1645 13.0205L96.0608 11.479L94.9626 8.86079L94.7924 8.4545L94.469 9.23097L93.1398 12.4176L90.2721 11.2825C90.2721 11.2734 90.2721 11.2668 90.2766 11.2578C90.2758 11.2566 90.2751 11.2551 90.2751 11.2537C90.2751 11.2522 90.2758 11.2507 90.2766 11.2496C90.2773 11.2374 90.2803 11.2256 90.2847 11.2142C90.4986 10.3518 90.8508 9.5298 91.3282 8.7802C91.3415 8.74401 91.3504 8.72506 91.3504 8.72181C91.3504 8.65846 91.3504 8.67 91.3356 8.65602L90.5874 8.37139L90.7842 7.86881L90.5948 7.71663L90.6451 7.67304L90.8316 7.5184L91.121 7.27821L91.4725 6.98455L91.6279 6.85458L91.6856 6.80852L91.6153 6.71146C91.6153 6.71146 91.5021 6.55928 91.451 6.48032C91.3334 6.30646 91.2305 6.12323 91.1432 5.93249C91.0884 5.81157 91.041 5.6923 91.0011 5.57385C90.9818 5.53041 90.9685 5.48484 90.9596 5.43812C90.9167 5.28669 90.8849 5.13215 90.8642 4.97585C90.8523 4.88671 90.8457 4.79686 90.8449 4.70686V4.6715C90.8479 4.49928 90.8975 4.33108 90.9877 4.18454C91.0159 4.13421 91.0499 4.08775 91.0899 4.04635L91.1099 4.02907C91.1395 3.99639 91.172 3.96562 91.2061 3.93694C91.2727 3.88182 91.3459 3.83564 91.4244 3.79958C91.4754 3.77019 91.5287 3.74647 91.5842 3.72883C91.5842 3.68606 91.5842 3.63917 91.5916 3.5816C91.6242 3.5816 91.6568 3.59065 91.6864 3.59641C91.7722 3.60971 91.8558 3.63091 91.938 3.65974C91.9439 3.66076 91.9506 3.6627 91.9557 3.6655C91.9306 3.50098 91.7374 3.46891 91.6723 3.37842C91.6568 3.36076 91.6479 3.33795 91.6479 3.31427C91.6479 3.29298 91.6545 3.27222 91.6656 3.25422C91.6908 3.22588 91.7063 3.19011 91.71 3.15222C91.7108 3.1346 91.7056 3.11722 91.6967 3.10204C91.6901 3.08613 91.679 3.07245 91.6649 3.06256C91.6649 3.06256 91.6649 3.06256 91.6605 3.06256C91.6501 3.0551 91.639 3.0485 91.6272 3.04281C91.6124 3.0313 91.5976 3.01979 91.5842 3.01074C91.5709 3.00169 91.5472 2.97454 91.5295 2.95727C91.3652 2.79255 91.2505 2.58461 91.2001 2.35762C91.2001 2.33952 91.1942 2.32308 91.1905 2.30251C91.1861 2.28194 91.1846 2.25644 91.1831 2.23177C91.175 2.15519 91.175 2.07803 91.1831 2.00145C91.1868 1.98006 91.1905 1.95539 91.1942 1.93236C91.2453 1.6827 91.3785 1.45751 91.5739 1.29322C91.6279 1.24814 91.6849 1.20665 91.7448 1.16901C91.7493 1.1663 91.753 1.16298 91.7567 1.15914C91.8277 1.11623 91.9025 1.08094 91.9809 1.05385C91.9935 1.04853 92.0075 1.04413 92.0209 1.04069C92.0297 1.03709 92.0386 1.03487 92.0483 1.03411C92.1208 1.01099 92.1948 0.993395 92.2703 0.981468C92.3361 0.971475 92.4035 0.965706 92.4701 0.964195C92.5138 0.964195 92.5589 0.964195 92.6003 0.964195C92.6181 0.964195 92.6381 0.968307 92.6536 0.969952C92.6692 0.971598 92.6832 0.969952 92.6973 0.974065H92.8046C92.8431 0.974065 92.8875 0.974065 92.9334 0.974065C92.9445 0.989693 92.9556 1.00368 92.9652 1.02013L92.977 1.03658C93.014 1.10074 93.0429 1.15996 93.0629 1.20109C93.0629 1.20685 93.0681 1.21014 93.0725 1.21261C93.0821 1.22868 93.094 1.24335 93.108 1.2562C93.222 1.3615 93.4114 1.39193 93.4536 1.48652C93.4965 1.58112 93.6571 1.90685 93.6571 1.90685C93.6571 1.90685 93.9983 2.29182 93.9983 2.30909C93.9983 2.38147 93.9983 2.4152 94.0442 2.46785C94.113 2.44886 94.1811 2.42634 94.2477 2.40039C94.2507 2.34666 94.2573 2.29311 94.2655 2.24C94.2714 2.22683 94.5126 1.91097 94.6355 1.92413C94.6673 1.92413 95.0884 1.88958 95.0906 1.88958C95.4658 1.59398 95.7263 1.17641 95.8262 0.709198V0.697682C95.8292 0.690288 95.8314 0.682546 95.8322 0.674651C95.8381 0.655863 95.8492 0.638903 95.8633 0.625297C95.8877 0.606308 95.9158 0.593469 95.9461 0.587881C95.9765 0.582294 96.0076 0.584125 96.0364 0.593217C96.1015 0.608113 96.163 0.631922 96.2207 0.663957C96.3243 0.722962 96.4198 0.794825 96.5049 0.877824C96.533 0.905792 96.5567 0.930469 96.5804 0.960081C96.6336 1.01999 96.681 1.08502 96.7217 1.15421C96.7572 1.19901 96.7809 1.25123 96.7928 1.30685C96.8039 1.36247 96.8031 1.42001 96.7883 1.47501L96.778 1.48982C96.4797 1.95796 96.0298 2.30981 95.5036 2.48676C95.4888 2.49306 95.4747 2.50078 95.4621 2.50979C95.5665 2.61023 95.6435 2.73565 95.6856 2.87419H96.2422V4.47573C96.2422 4.5004 96.2422 4.52261 96.2377 4.54564C96.2325 4.56867 96.2318 4.59418 96.2259 4.61885C96.22 4.64353 96.22 4.64847 96.2155 4.66328C96.1955 4.73394 96.1667 4.8015 96.1282 4.86398C96.1201 4.87714 96.1097 4.88865 96.1008 4.90346C96.0409 4.98567 95.9646 5.05512 95.8773 5.10778C95.79 5.16045 95.6938 5.19529 95.5924 5.21028C95.5554 5.21604 95.5176 5.2185 95.4792 5.2218H94.7036L95.9609 6.63578C95.9609 6.63578 95.5865 6.9426 95.4584 7.06351C95.5154 7.14476 95.5805 7.21976 95.6523 7.28726C95.7352 7.33825 96.271 7.38349 96.2281 7.63685C96.2244 7.66651 96.2177 7.69572 96.2081 7.72404C96.1467 7.84797 96.0727 7.96491 95.9868 8.07278C95.8995 8.18549 95.7175 8.1954 95.6575 8.38212C95.7493 8.44318 95.8189 8.53235 95.8559 8.63626C96.1608 8.28177 96.4301 7.89826 96.6603 7.49125C97.3056 7.65576 98.8612 8.52192 99.2712 8.64943C99.5621 8.7278 99.8581 8.78471 100.157 8.81972C100.117 8.9157 100.09 9.01628 100.075 9.11915C100.075 9.15696 100.202 9.19315 100.344 9.2787C100.421 9.32547 100.49 9.38275 100.55 9.44899C100.52 9.80599 100.572 10.1651 100.701 10.4994C100.749 10.6138 100.791 10.7311 100.824 10.8506C100.836 10.8885 100.845 10.9263 100.856 10.9666C100.875 11.0548 100.893 11.1459 100.907 11.2397C100.925 11.3581 100.937 11.479 100.942 11.6C100.942 11.6312 100.942 11.6633 100.942 11.6954V11.8311C100.944 11.8585 100.944 11.886 100.942 11.9134C100.936 12.063 100.921 12.2121 100.896 12.36C100.889 12.3912 100.885 12.4234 100.877 12.4579C100.87 12.4925 100.859 12.5501 100.847 12.5928C100.808 12.7565 100.755 12.9166 100.689 13.0715C100.681 13.0872 100.674 13.1034 100.667 13.12C100.663 13.1316 100.658 13.1406 100.655 13.1497C100.652 13.1539 100.65 13.1587 100.648 13.1636C100.632 13.1636 100.617 13.1538 100.601 13.1497C100.503 13.1169 100.41 13.0739 100.321 13.0213C100.264 12.9851 100.207 12.9473 100.157 12.9054C100.101 12.8604 100.048 12.8115 99.9994 12.759C100.093 12.9583 100.231 13.1331 100.404 13.2689C100.434 13.2903 100.466 13.3159 100.497 13.3373C100.521 13.3488 100.546 13.3584 100.571 13.366C100.571 13.366 100.997 13.5018 101.082 13.519C101.541 13.5915 101.994 13.6934 102.439 13.8242C102.512 13.8489 102.646 13.6811 103.049 13.7156C103.228 13.7361 103.393 13.8159 103.521 13.9423C103.648 14.0687 103.729 14.2343 103.751 14.4123C103.742 14.6805 103.628 14.7463 103.587 14.9009C103.537 15.0992 103.229 16.7978 103.195 17.0939C103.173 17.2847 103.167 17.552 103.167 17.5554C103.167 17.5825 103.242 17.9025 103.249 18.0102C103.249 18.0316 103.249 18.0464 103.249 18.0678C103.249 18.1166 103.245 18.1653 103.236 18.2134C103.225 18.3142 103.192 18.4116 103.142 18.4995C103.091 18.5875 103.023 18.6642 102.941 18.725C102.941 18.7349 102.936 18.7456 102.932 18.7554C102.909 18.8377 102.88 18.92 102.849 19.0023C102.697 19.4179 102.459 19.7966 102.15 20.1135L102.142 20.0995L101.525 18.92L101.518 18.9068C101.651 18.6606 101.819 18.436 102.018 18.2405C102.044 18.2116 102.072 18.1841 102.1 18.1583C102.163 18.1007 102.228 18.0456 102.292 17.9938C102.292 17.9756 102.292 17.9568 102.292 17.9395C102.296 17.8104 102.327 17.6835 102.385 17.5681C102.443 17.4526 102.526 17.3513 102.627 17.2716C102.627 17.2238 102.719 15.4455 102.646 14.789C102.399 14.7508 102.161 14.6624 101.949 14.5291C101.889 14.4839 99.9299 14.6722 99.8707 14.6764C99.8115 14.6805 99.6479 14.6023 99.5332 14.6048C99.4192 14.6073 99.2357 14.6311 99.1676 14.6311C99.0381 14.6312 98.9116 14.5903 98.8065 14.5143C98.6962 14.4342 98.6185 14.3176 98.5859 14.1853C98.577 14.1559 98.5711 14.1255 98.5696 14.0948V14.0274C98.5704 14.0061 98.5719 13.985 98.5756 13.964C98.5756 13.9434 98.583 13.9221 98.5867 13.8998C98.6015 13.847 98.6229 13.7963 98.6511 13.7493C98.543 13.7176 98.4372 13.676 98.3365 13.6251C98.2418 13.5769 98.15 13.5219 98.0627 13.4606C97.8503 13.3101 97.6697 13.1199 97.5299 12.9005C97.4818 12.8253 97.4396 12.7469 97.4026 12.666C97.5232 13.1625 97.8326 13.5928 98.264 13.8661C98.2588 13.9064 98.2544 13.9484 98.2522 13.992C98.2492 14.0702 98.2566 14.1484 98.2736 14.2248C98.3084 14.3894 98.3869 14.5416 98.5001 14.6657C98.6318 14.8115 98.8035 14.9149 98.9937 14.9626C98.8383 15.5384 98.4956 16.5255 98.4956 16.5971C98.3513 17.0424 98.17 17.4744 97.9517 17.8885C97.9213 18.3184 97.8584 18.7454 97.7645 19.166C97.7497 19.2582 97.7415 19.3513 97.74 19.4448C97.74 19.5188 97.7008 19.9745 97.6742 20.7082C97.6742 20.7708 97.6505 20.7806 97.6505 20.8546C97.6542 20.9158 97.6749 20.9748 97.7097 21.0249C97.7097 21.0249 97.7156 21.0323 97.7186 21.0365C97.7445 21.071 97.7711 21.1047 97.7963 21.1393C97.8214 21.1738 97.8636 21.2338 97.8969 21.2824C97.9724 21.3955 98.0405 21.5134 98.1012 21.6352C98.1315 21.6961 98.1604 21.757 98.1833 21.8179C98.1989 21.8439 98.2115 21.8715 98.2218 21.9001C98.3284 22.1639 98.4016 22.4403 98.4387 22.7227H96.9918C97.0081 22.6388 97.0177 22.5539 97.0222 22.4685C97.0318 22.1382 96.9563 21.8109 96.8039 21.5176C96.7498 21.3684 96.6714 21.2293 96.5707 21.1064C96.5915 20.8948 96.6299 20.6854 96.6855 20.4804C96.7728 20.2406 96.8831 20.0098 97.0148 19.7911C97.0148 19.7911 97.1058 18.0464 97.1058 17.974C97.1058 17.9016 96.9822 17.2707 96.9312 16.9499C96.8867 16.6132 96.7913 16.2851 96.6485 15.9768C96.6152 15.9127 96.8046 15.735 96.8623 15.628L96.8268 15.5935C96.8179 15.5927 96.8098 15.5927 96.8009 15.5935C96.7254 15.6593 95.3275 16.0805 95.3275 16.0805C95.1994 15.9086 95.0544 15.7498 94.8953 15.6067C94.2803 15.5614 93.669 15.4837 93.0621 15.3739C92.1933 15.2165 91.3393 14.9881 90.5075 14.6912C90.3639 14.6393 90.2277 14.5843 90.096 14.5324C90.0901 14.5386 90.0849 14.5458 90.0812 14.5538V14.6278C90.0804 14.7236 90.0738 14.8192 90.0612 14.9141C90.0249 15.278 89.928 15.6332 89.7733 15.9645C89.7067 16.1065 89.6253 16.2408 89.5306 16.3651C89.5239 16.3766 89.518 16.3898 89.5128 16.3996C89.5772 16.5301 89.6246 16.6683 89.6527 16.8109C89.6727 16.9 89.6867 16.9905 89.6941 17.0815C89.7015 17.1936 89.7015 17.306 89.6941 17.4179C90.2914 18.1385 90.8383 18.8998 91.3304 19.6965C91.3341 19.7021 91.3378 19.7078 91.3408 19.7137C91.4503 19.7814 91.5406 19.8771 91.6005 19.9911C91.6612 20.105 91.6901 20.233 91.6849 20.362C91.6834 20.4422 91.6723 20.522 91.6516 20.5997C91.6272 20.6866 91.5872 20.7685 91.5339 20.8415C91.5554 20.9237 91.5724 21.006 91.5857 21.0932C91.6153 21.2767 91.6264 21.4627 91.619 21.6484V21.6657C91.6057 21.9415 91.5502 22.2137 91.454 22.4726C91.4318 22.5239 91.4066 22.5736 91.3778 22.6215L90.3091 21.7233L90.2825 21.7027C90.3321 21.5703 90.3913 21.4414 90.4586 21.3169C90.5304 21.1856 90.6081 21.0581 90.6932 20.9353C90.563 20.8055 90.4801 20.6353 90.4586 20.4524C90.4556 20.4202 90.4542 20.3878 90.4542 20.3554C90.4542 20.3282 90.4542 20.297 90.4586 20.2673C90.4667 20.0739 90.5282 19.8864 90.637 19.7261C90.5015 19.49 90.1781 19.0277 90.0767 18.8978C89.8828 18.6545 89.6697 18.4273 89.4395 18.2183C89.2834 18.1399 89.1176 18.0816 88.9459 18.0448C88.9333 18.0448 88.9733 18.0448 88.9459 18.0448C88.8638 18.0357 88.6077 17.9938 88.6077 17.9938L88.2192 17.9263H88.1948L88.291 17.6228C88.291 17.617 88.291 17.6112 88.291 17.603C88.3043 17.4902 88.3043 17.3762 88.291 17.2633C88.2814 17.1837 88.2621 17.1056 88.234 17.0305C88.2244 17.0051 88.2118 16.9812 88.2007 16.9565C88.1859 16.9282 88.1689 16.9007 88.1511 16.8743C88.1452 16.8679 88.14 16.861 88.1356 16.8537C87.9987 16.6727 87.6841 16.2713 87.6308 16.2088C87.6419 16.1973 87.6523 16.1825 87.6612 16.1726L87.6767 16.1537C87.8854 15.8952 88.0623 15.6133 88.2051 15.3139C88.2747 15.1668 88.3361 15.0161 88.3894 14.8623C88.4568 14.6681 88.5093 14.4693 88.5478 14.2675C88.5678 14.1737 88.584 14.08 88.5988 13.9813C88.5974 13.9726 88.5974 13.9636 88.5988 13.955C88.664 13.9114 88.7276 13.8637 88.7883 13.8143C88.9615 13.6766 89.1147 13.5161 89.2449 13.3373C89.3271 13.2267 89.3988 13.1092 89.4603 12.986C89.4736 12.9597 89.4862 12.9336 89.4973 12.9079C89.4825 12.9301 89.4677 12.9539 89.4514 12.9769C89.2405 13.2744 88.9689 13.5229 88.6536 13.7057L88.6203 13.7222C88.5937 13.7388 88.5663 13.7539 88.5382 13.7675C88.476 13.8006 88.4109 13.83 88.345 13.8554C88.3324 13.9468 88.3154 14.0348 88.2969 14.1219C88.2695 14.2511 88.2362 14.3736 88.1992 14.4962C88.1674 14.6031 88.1289 14.7093 88.0882 14.8112C88.0238 14.9807 87.9476 15.1456 87.8603 15.3048C87.7633 15.4868 87.6516 15.6609 87.5272 15.8255C87.4947 15.8658 87.4666 15.9078 87.4362 15.9406C87.192 16.2412 86.9041 16.5026 86.5807 16.7155C86.4075 16.829 86.224 16.9259 86.0331 17.0051C85.9768 17.0281 85.9228 17.0511 85.868 17.0684C85.7674 17.2935 85.6134 17.4911 85.4203 17.6442C85.3167 17.7154 85.2234 17.8003 85.1428 17.8967C85.0081 18.1147 84.9074 18.3514 84.8423 18.5991C84.7313 19.0034 84.6432 19.4137 84.5796 19.8281C84.5796 19.8972 84.55 20.1949 84.55 20.2673C84.55 20.3397 84.7594 21.0439 84.7594 21.1203C84.7594 21.124 84.7594 21.1276 84.7609 21.131C84.7624 21.1344 84.7646 21.1375 84.7668 21.1401C85.085 21.3798 85.3344 21.699 85.4899 22.0654C85.5838 22.2746 85.6467 22.4963 85.6764 22.7235H84.4427C84.4116 22.5272 84.362 22.3343 84.2932 22.1477C84.177 21.8301 84.0075 21.5348 83.7914 21.275C83.7448 21.2172 83.6945 21.1622 83.6419 21.1105C83.6219 21.0747 83.6108 21.0346 83.6101 20.9937C83.6086 20.9864 83.6086 20.9787 83.6101 20.9715C83.6405 20.7169 83.7048 20.4678 83.8033 20.2311C83.8425 20.159 83.8684 20.0808 83.8817 20C83.8817 19.9284 84.0053 18.4766 83.9964 18.4232C83.875 18.0534 83.7152 17.6972 83.5206 17.3604C83.5909 17.2682 83.6693 17.1821 83.7544 17.1029C83.9431 16.9606 84.0808 16.7613 84.1474 16.5345C84.16 16.4704 84.2133 16.4654 84.2133 16.3914C84.2155 16.3674 84.2103 16.3433 84.1985 16.3223C83.9202 16.5297 83.582 16.6411 83.2342 16.6398C83.4443 16.4684 83.6027 16.2429 83.693 15.9876C83.7833 15.7324 83.8018 15.4572 83.747 15.1921C83.7426 15.1682 83.7381 15.1452 83.7322 15.1246" fill="#2575E8"/>
<path d="M0.130859 22.5328V4.85913H9.16261V7.84587H3.42852V11.9094H7.7972V14.8961H3.42852V19.5469H9.40201V22.5336L0.130859 22.5328Z" fill="#2575E8"/>
<path d="M17.9325 9.77897C17.7508 9.10789 17.4155 8.48831 16.9528 7.96934C16.7641 7.78366 16.5398 7.63803 16.2934 7.5412C16.0471 7.44438 15.7836 7.39835 15.5191 7.40589C15.2702 7.38909 15.0208 7.42633 14.7878 7.51508C14.5548 7.60382 14.3438 7.74195 14.1692 7.91999C13.8398 8.31713 13.6733 8.82459 13.7036 9.33975C13.7054 9.56184 13.7555 9.78097 13.8504 9.98175C13.9452 10.1826 14.0827 10.3604 14.2531 10.5028C14.6704 10.874 15.1272 11.198 15.6153 11.4693C16.1565 11.7797 16.7461 12.1102 17.3838 12.4606C18.0158 12.8073 18.6087 13.221 19.1523 13.6944C19.6997 14.1751 20.1605 14.7464 20.5144 15.3831C20.8977 16.1058 21.087 16.9155 21.0639 17.7332C21.0742 18.4439 20.9485 19.15 20.6938 19.8135C20.458 20.4169 20.0907 20.9604 19.6187 21.4043C19.1199 21.862 18.5294 22.2083 17.8864 22.4202C17.1388 22.6663 16.3554 22.7862 15.5684 22.7747C14.3003 22.8041 13.062 22.3885 12.0684 21.6001C10.9619 20.6014 10.2111 19.2693 9.92969 17.8056L13.1788 17.0982C13.2528 17.5687 13.3935 18.0263 13.5967 18.457C13.7548 18.7891 13.969 19.0913 14.2301 19.3504C14.4445 19.5648 14.7007 19.7328 14.9827 19.8439C15.2228 19.9376 15.4777 19.9875 15.7354 19.9911C16.1377 19.975 16.527 19.8444 16.8577 19.6146C17.1883 19.3849 17.4466 19.0655 17.6021 18.6942C17.7575 18.3227 17.8038 17.9147 17.7355 17.5178C17.667 17.1211 17.4868 16.752 17.216 16.4541C16.813 16.0245 16.3549 15.65 15.8539 15.3404C15.3121 14.9976 14.7225 14.659 14.0853 14.3245C13.4604 13.998 12.8682 13.6124 12.3168 13.1729C11.7838 12.7481 11.3246 12.238 10.9579 11.6635C10.5746 11.03 10.3836 10.2986 10.4084 9.55851C10.3722 8.89882 10.4687 8.23854 10.6924 7.61682C10.9161 6.99512 11.2623 6.42466 11.7106 5.93925C12.235 5.46828 12.8494 5.10835 13.5166 4.88118C14.1838 4.654 14.8902 4.56427 15.5931 4.61739C16.2675 4.60807 16.9386 4.71578 17.5763 4.93573C18.1443 5.13573 18.6708 5.43854 19.1293 5.82903C19.5761 6.21374 19.9522 6.67363 20.2406 7.18791C20.5411 7.72447 20.7627 8.30152 20.8986 8.90134L17.9325 9.77897Z" fill="#2575E8"/>
<path d="M32.5302 4.85913V7.84587H28.6831V22.5328H25.3862V7.84587H21.5391V4.85913H32.5302Z" fill="#2575E8"/>
<path d="M30.3809 22.5328L34.6582 4.85913H38.8878L43.0451 22.5328H39.8947L39.054 18.8115H34.4904L33.5609 22.5328H30.3809ZM35.0876 15.8255H38.3614L36.7607 8.67746H36.7129L35.0876 15.8255Z" fill="#2575E8"/>
<path d="M43.7363 4.85916H48.3237C49.1715 4.84627 50.0168 4.95711 50.8325 5.18819C51.5302 5.38833 52.1696 5.7534 52.6965 6.25259C53.2328 6.78442 53.6377 7.43386 53.8793 8.1494C54.1812 9.06174 54.3383 10.0157 54.3449 10.9766V16.4104C54.3383 17.3714 54.1813 18.3253 53.8793 19.2376C53.6379 19.9533 53.2328 20.6027 52.6965 21.1345C52.1697 21.6339 51.5303 21.9993 50.8325 22.1997C50.0167 22.4307 49.1715 22.5415 48.3237 22.5287H43.7363V4.85916ZM47.0373 19.5461H48.1839C48.5704 19.5697 48.9577 19.5135 49.3215 19.3809C49.6854 19.2483 50.018 19.0422 50.2987 18.7753C50.8865 17.9844 51.1552 17.0013 51.0514 16.0214V11.3706C51.1334 10.4214 50.9023 9.47144 50.3933 8.66603C50.1122 8.36919 49.7668 8.14066 49.3837 7.99805C49.0006 7.8555 48.5899 7.80259 48.1831 7.84343H47.0373V19.5461Z" fill="#2575E8"/>
<path d="M54.2988 22.5319L58.5761 4.85829H62.8091L66.9663 22.5319H63.8126L62.9736 18.8115H58.4084L57.4764 22.5319H54.2988ZM65.0029 0.575195C64.9267 0.953582 64.8228 1.32584 64.692 1.68895C64.5716 2.02435 64.4054 2.34155 64.1984 2.63161C64.0014 2.90588 63.7439 3.13107 63.4458 3.28966C63.1057 3.46229 62.728 3.54712 62.3468 3.53643C62.0301 3.53582 61.715 3.49069 61.4108 3.40235C61.1003 3.31297 60.8018 3.21508 60.515 3.1087C60.2282 3.00231 59.9455 2.90443 59.6669 2.81504C59.4014 2.72757 59.1239 2.68207 58.8443 2.68014C58.7096 2.6739 58.5752 2.69819 58.4511 2.75117C58.327 2.80416 58.2166 2.88447 58.1279 2.98614C57.9506 3.1936 57.8274 3.44171 57.7693 3.70834H56.264C56.3255 3.32393 56.4255 2.94667 56.5625 2.58226C56.6899 2.23732 56.8715 1.91493 57.1005 1.62726C57.3189 1.35491 57.5914 1.13084 57.9008 0.969204C58.2456 0.797532 58.6271 0.712812 59.0122 0.722434C59.3323 0.722798 59.6506 0.77246 59.9556 0.869673C60.266 0.967285 60.5646 1.06928 60.8514 1.17567C61.1382 1.28205 61.4091 1.38405 61.6641 1.48166C61.8764 1.57066 62.1029 1.62054 62.3328 1.62891C62.468 1.63056 62.6019 1.60423 62.7264 1.55157C62.8508 1.49891 62.963 1.42105 63.0559 1.32291C63.256 1.11674 63.3927 0.857537 63.4499 0.576017L65.0029 0.575195ZM59.0064 15.8248H62.2802L60.6795 8.67661H60.6318L59.0064 15.8248Z" fill="#2575E8"/>
<path d="M67.0105 10.5373C66.9866 9.59875 67.1241 8.66302 67.4169 7.77102C67.6471 7.08543 68.0312 6.46162 68.5397 5.94739C69.0249 5.47796 69.6143 5.12987 70.2596 4.93152C71.6945 4.5072 73.2214 4.5072 74.6562 4.93152C75.3015 5.12987 75.8913 5.47796 76.3761 5.94739C76.8845 6.46175 77.2686 7.08552 77.4987 7.77102C77.7918 8.66309 77.9295 9.59875 77.905 10.5373V16.8529C77.9295 17.7915 77.7918 18.7272 77.4987 19.6193C77.2686 20.3048 76.8845 20.9286 76.3761 21.4429C75.8913 21.9125 75.3015 22.2606 74.6562 22.4587C73.2214 22.8831 71.6945 22.8831 70.2596 22.4587C69.6142 22.2606 69.0248 21.9125 68.5397 21.4429C68.031 20.9287 67.6469 20.3049 67.4169 19.6193C67.124 18.7272 66.9865 17.7915 67.0105 16.8529V10.5373ZM70.3082 17.2931C70.2655 17.6453 70.2945 18.0026 70.3934 18.3434C70.4924 18.6843 70.6593 19.0016 70.884 19.2763C71.342 19.6101 71.8941 19.79 72.4608 19.79C73.0276 19.79 73.5797 19.6101 74.0377 19.2763C74.2625 19.0016 74.429 18.6843 74.5281 18.3434C74.6273 18.0026 74.6562 17.6453 74.6133 17.2931V10.1005C74.6562 9.74831 74.6273 9.39116 74.5281 9.05051C74.429 8.70986 74.2625 8.39275 74.0377 8.11811C73.5798 7.78413 73.0276 7.60415 72.4608 7.60415C71.8941 7.60415 71.3419 7.78413 70.884 8.11811C70.6593 8.39275 70.4925 8.70986 70.3936 9.05051C70.2946 9.39116 70.2656 9.74831 70.3082 10.1005V17.2931Z" fill="#2575E8"/>
</g>
<defs>
<clipPath id="clip0_261_5153">
<rect width="104.348" height="22.2018" fill="white" transform="translate(0.130859 0.575195)"/>
</clipPath>
</defs>
</svg>
