<svg width="219" height="20" viewBox="0 0 219 20" fill="none" xmlns="http://www.w3.org/2000/svg">
<g clip-path="url(#clip0_367_462)">
<path d="M80.3475 4.72408C80.325 4.96196 80.2882 5.19829 80.2375 5.43182C80.1817 5.66346 79.6555 6.9676 79.6169 7.18067C79.5933 7.39012 79.5823 7.60083 79.5841 7.8116C79.424 7.88138 79.0567 8.15588 78.8616 8.15588C78.6664 8.15588 78.2006 7.70797 77.9991 7.65805C77.9991 7.10899 78.1408 7.06294 78.0912 6.7775C78.0118 6.4485 77.8967 6.12904 77.7481 5.82472C77.6923 5.68372 77.6779 5.52958 77.7067 5.38062C77.6664 5.43904 77.6382 5.50485 77.6232 5.57426C77.6088 5.64367 77.6082 5.71531 77.6209 5.78504C77.6716 6.08899 77.9157 6.54652 77.9485 6.74489C77.9819 6.94325 77.9732 7.17555 77.8967 7.2261C77.3497 7.1668 76.8206 6.99495 76.3434 6.72122C75.9749 6.50985 75.5944 6.3197 75.204 6.15171C75.4366 5.66222 75.7291 5.20352 76.0745 4.78615C76.3612 4.44003 76.7026 4.14324 77.0855 3.90757C77.6099 3.64348 78.1966 3.52817 78.7815 3.57418C79.1396 3.61433 79.4931 3.68411 79.8391 3.78279C79.8391 3.78279 80.1776 3.50187 80.4367 3.59082C80.3619 3.78599 80.2784 3.98628 80.2784 3.98628L80.6146 4.18209C80.5139 4.35657 80.4246 4.53716 80.3463 4.72281L80.3475 4.72408ZM65.2413 9.73898C65.247 10.1554 65.3956 10.5572 65.6621 10.8773C65.6621 10.8773 65.6679 10.8838 65.6707 10.8863C65.5867 10.6149 65.5182 10.3389 65.4664 10.0596V9.50605C65.5337 9.11755 65.65 8.73908 65.8124 8.37983C65.8124 8.37983 65.8124 8.38432 65.8078 8.38432L65.7899 8.39969C65.6477 8.53856 65.5285 8.69953 65.4382 8.87639L65.418 8.91674C65.319 9.12268 65.2608 9.34582 65.2459 9.57392C65.243 9.61871 65.239 9.66281 65.239 9.70766C65.239 9.71659 65.239 9.72683 65.239 9.73835L65.2413 9.73898ZM74.4326 6.79863C74.4608 6.78228 74.485 6.75867 74.5017 6.73017C74.5489 6.65619 74.592 6.57924 74.6295 6.49981C74.6295 6.35455 74.3232 6.37183 74.2575 6.31744C74.1925 6.26305 74.1631 6.18945 74.0612 6.14466L74.0566 6.16002C74.0566 6.1869 74.0566 6.22401 74.0566 6.25792C74.0745 6.35249 74.0831 6.44845 74.0831 6.5446C74.0854 6.66824 74.0704 6.7916 74.0394 6.91129C74.0964 6.93248 74.1522 6.95729 74.2057 6.9855C74.2696 6.91026 74.3462 6.84699 74.4326 6.79863ZM74.3975 5.68202L73.204 4.34206L72.4302 4.98772L72.4596 5.08179C72.4861 5.14763 72.5172 5.21174 72.5517 5.27376C72.5903 5.34037 72.6329 5.40448 72.6795 5.46573C72.7331 5.53529 72.7906 5.60113 72.8534 5.66282C72.862 5.67178 72.873 5.67946 72.8804 5.68841C73.0497 5.84743 73.2483 5.9714 73.4654 6.05316C73.5932 6.10013 73.7273 6.12607 73.8626 6.12995L74.3951 5.68202H74.3975ZM73.8177 3.4654V3.11282C73.82 3.09237 73.8183 3.07162 73.8119 3.05197C73.8056 3.03232 73.7953 3.01422 73.7814 2.99891C73.7354 2.97652 73.6922 2.94811 73.6536 2.91444C73.6404 2.90421 73.6271 2.89077 73.6156 2.88117C73.5333 2.89877 73.4475 2.88911 73.3715 2.85365C73.3283 2.83971 73.288 2.81803 73.2529 2.78966C73.2322 2.77165 73.2155 2.74961 73.2034 2.72487C73.1913 2.70013 73.1838 2.67319 73.1827 2.64569C73.143 2.64569 73.1044 2.64121 73.0675 2.63673V2.86645C73.0675 2.87541 73.0722 2.88629 73.0745 2.89461C73.0963 2.97043 73.1009 3.05032 73.0865 3.12803C73.0727 3.20573 73.0411 3.27915 72.9939 3.34254C72.9432 3.41412 72.8758 3.47268 72.7981 3.51349C72.7204 3.55429 72.634 3.57618 72.546 3.57738C72.5373 3.6443 72.5373 3.71203 72.546 3.77895C72.554 3.84294 72.6179 4.00611 72.6438 4.0989C72.7008 4.26045 72.7331 4.42952 72.74 4.60058L72.9167 4.45213C72.8781 4.31071 72.8367 4.16353 72.797 4.01827C72.7693 3.91844 72.7411 3.82054 72.7169 3.72328C72.8154 3.70402 72.9086 3.66457 72.991 3.6074C73.0727 3.55023 73.1424 3.4766 73.1948 3.39117C73.295 3.42572 73.3974 3.45267 73.5011 3.4718H73.8119L73.8177 3.4654ZM74.2656 3.01171C74.3134 2.96436 74.3025 2.84726 74.2115 2.65016C74.1787 2.60764 74.1418 2.56823 74.1015 2.53242C74.0313 2.56698 74.0025 2.56954 73.9783 2.58169C73.9588 2.61301 73.9375 2.64295 73.9138 2.67128C73.8983 2.68984 73.8563 2.6828 73.8419 2.69624C73.8177 2.7553 73.7768 2.80588 73.7239 2.8415C73.7924 2.90473 73.8718 2.95466 73.9582 2.98867C74.0163 3.01171 74.2144 3.0565 74.2639 3.01171H74.2656ZM74.4936 2.20415C74.702 2.08429 74.8811 1.92078 75.0198 1.72487C74.9812 1.71177 74.9438 1.69528 74.9087 1.67559C74.7659 1.59018 74.6433 1.4744 74.55 1.33645C74.4245 1.63811 74.2265 1.90438 73.9743 2.11201C73.9864 2.13624 73.9962 2.16151 74.0037 2.18751C74.0065 2.19544 74.0083 2.20358 74.0094 2.21183C74.0215 2.27848 74.0215 2.34676 74.0094 2.4134C74.1793 2.36551 74.3416 2.29537 74.4924 2.20479L74.4936 2.20415ZM75.0872 1.61161C75.0872 1.61161 75.0906 1.61161 75.0918 1.61161C75.0946 1.60867 75.0975 1.60498 75.0987 1.60086C75.1004 1.59674 75.101 1.5923 75.1004 1.58793C75.0733 1.4757 75.0089 1.37602 74.9173 1.30509C74.8672 1.2559 74.8131 1.21175 74.7544 1.17327C74.6905 1.13424 74.6404 1.11824 74.6116 1.12848C74.6082 1.13008 74.6053 1.13201 74.6024 1.13424C74.6001 1.13835 74.5978 1.1429 74.5966 1.14768C74.5909 1.16269 74.5909 1.17937 74.5966 1.19439C74.6364 1.28998 74.6968 1.37534 74.774 1.44395C74.9024 1.57193 75.0423 1.6468 75.0866 1.61352L75.0872 1.61161ZM73.8367 2.13313C73.8367 2.12992 73.5345 2.1568 73.5345 2.1568C73.5345 2.1568 73.3876 2.26046 73.3686 2.34877C73.3646 2.41098 73.3646 2.47341 73.3686 2.53562L73.8402 2.54458C73.877 2.48208 73.8966 2.41049 73.896 2.33767C73.8954 2.26486 73.8747 2.19364 73.8361 2.13184L73.8367 2.13313ZM73.5022 2.77622C73.7492 2.79414 73.7354 2.64824 73.7354 2.64824L73.3088 2.64185C73.3088 2.64185 73.2541 2.75895 73.5005 2.77366L73.5022 2.77622ZM72.8804 2.26878C72.8424 2.22724 72.7975 2.19298 72.7469 2.16768C72.6939 2.21567 72.6225 2.2835 72.5552 2.3347C72.5552 2.3347 72.5552 2.33917 72.5477 2.33917C72.5241 2.36083 72.4976 2.37912 72.4688 2.39356C72.421 2.34631 72.3865 2.28741 72.3686 2.22271C72.364 2.2078 72.3611 2.1923 72.3606 2.17664C72.3583 2.15402 72.3634 2.13138 72.375 2.11179C72.3865 2.0922 72.4037 2.07663 72.4245 2.06721C72.4751 2.04828 72.5252 2.02583 72.573 2.00003C72.5793 1.96396 72.5955 1.93043 72.6202 1.9034C72.5983 1.85127 72.5707 1.80187 72.5379 1.75622L72.4095 1.68072C72.36 1.65509 72.3122 1.62601 72.2662 1.59369C72.2662 1.67495 72.2736 1.72167 72.2725 1.78566V1.80614C72.2725 1.83941 72.2725 1.87461 72.2771 1.90852C72.2771 1.97251 72.2771 2.0365 72.2771 2.10049H72.1666C72.1677 2.07919 72.1677 2.0578 72.1666 2.0365C72.1666 2.0013 72.1666 1.96867 72.1666 1.93283C72.1666 1.897 72.1619 1.86117 72.1608 1.82469C72.1533 1.68263 72.1406 1.54697 72.1286 1.41771C72.1136 1.41268 72.0986 1.40925 72.0825 1.40748L71.9996 1.39532H71.9846C71.9627 1.39532 71.9426 1.39532 71.9207 1.39532C71.915 1.41131 71.9639 1.69351 71.9743 1.74406C71.98 1.77094 72.0267 2.06785 72.0272 2.08513V2.09409H71.9225V2.09857C71.9011 1.97059 71.8764 1.84261 71.8465 1.72039C71.8165 1.59816 71.7877 1.49962 71.7555 1.40044C71.6559 1.41296 71.5586 1.43834 71.4653 1.47595C71.4653 1.47595 71.4584 1.47595 71.4561 1.48043C71.3922 1.50806 71.3318 1.54353 71.2765 1.58601L71.2494 1.60648C71.2114 1.6457 71.1763 1.68692 71.1429 1.72999C71.0928 1.79846 71.0514 1.86245 71.0226 1.90532C71.0042 1.93092 71.0042 1.96611 70.984 2.0045C70.9765 2.02545 70.9708 2.04682 70.9662 2.0685C70.9616 2.09113 70.9587 2.11398 70.9564 2.13697C70.9622 2.13881 70.9679 2.14117 70.9731 2.144C71.0082 2.15296 71.041 2.16192 71.075 2.16768C71.1625 2.1863 71.2517 2.19574 71.3416 2.19583H71.3657C71.4089 2.19599 71.4515 2.19385 71.4941 2.18944V2.19583C71.5287 2.33004 71.5983 2.45272 71.6956 2.55162C71.771 2.63233 71.8614 2.69755 71.9616 2.74359C71.9846 2.75418 72.0082 2.76274 72.033 2.76918C72.0468 2.77366 72.0595 2.77879 72.075 2.78263C72.0739 2.805 72.0739 2.82743 72.075 2.84981C72.075 2.88373 72.075 2.91764 72.075 2.94772L72.1608 2.95796C72.1608 2.92852 72.1608 2.8978 72.1648 2.87029C72.1631 2.85796 72.1631 2.8455 72.1648 2.83318V2.77558C72.1648 2.74103 72.1648 2.70455 72.1648 2.66744V2.60665C72.1648 2.56826 72.1648 2.53242 72.1648 2.49659V2.47803C72.1648 2.46459 72.1648 2.45116 72.1648 2.43964V2.40252H72.2713V2.49786C72.2794 2.50682 72.2875 2.51514 72.2949 2.52474C72.3341 2.56697 72.3744 2.61369 72.413 2.6572C72.4245 2.67128 72.436 2.68472 72.4475 2.69688C72.4504 2.69903 72.4527 2.70189 72.4544 2.7052C72.459 2.70968 72.4636 2.71671 72.4665 2.72055C72.4953 2.75447 72.5241 2.78902 72.55 2.82422C72.5822 2.80449 72.6133 2.78155 72.6415 2.75575C72.6669 2.7333 72.6893 2.70796 72.7089 2.68024C72.7192 2.6673 72.7284 2.65385 72.7365 2.63992C72.748 2.62111 72.7584 2.60167 72.7676 2.58169C72.7728 2.56762 72.7797 2.55482 72.7854 2.54074C72.7889 2.53457 72.7918 2.52789 72.7935 2.5209C72.8039 2.49321 72.8154 2.46609 72.8281 2.43964C72.8453 2.39682 72.8753 2.36053 72.9144 2.33597C72.9052 2.30928 72.8902 2.28501 72.8707 2.26494L72.8804 2.26878ZM71.4049 6.04036L71.341 5.97317C71.3272 5.95717 71.3133 5.94182 71.3001 5.92774C71.3001 5.92454 71.2949 5.9207 71.2932 5.9175L70.8994 6.24577L72.1107 7.59789L72.1579 7.55823L72.8735 6.95349C72.6398 6.8866 72.4147 6.79143 72.2034 6.67002C71.9478 6.5236 71.7112 6.34536 71.4999 6.13955C71.4947 6.13479 71.4895 6.12942 71.4855 6.12355C71.4682 6.10819 71.4532 6.09347 71.4383 6.07683C71.4256 6.06542 71.4135 6.05323 71.402 6.04036H71.4049ZM70.5413 6.5318L70.5355 6.53628L70.8936 6.82425L71.7716 7.5352L71.8355 7.45644L70.9397 6.4499L70.9144 6.42302C70.9144 6.42302 70.908 6.42302 70.9098 6.41598L70.8125 6.3072L70.5384 6.53244L70.5413 6.5318ZM70.5068 7.01429L70.5194 7.01751L71.3064 7.3189L71.3703 7.34256L70.6472 6.76667L70.6138 6.74105L70.5068 7.01429ZM65.0259 12.3088C64.9949 12.1764 64.962 12.0349 64.931 11.9249L64.6874 11.0783L64.3449 9.88999C64.2706 9.62983 64.2574 9.35584 64.3063 9.08969C64.3552 8.82348 64.4658 8.57229 64.6281 8.35588C64.7911 8.13947 65.0012 7.9637 65.2436 7.8424C65.4854 7.7211 65.7519 7.65754 66.0231 7.65673C66.1071 7.65696 66.1912 7.66295 66.2741 7.67469C66.3311 7.66911 66.3869 7.66053 66.4428 7.64907C66.4698 7.64366 66.4969 7.63577 66.5228 7.62541C66.543 7.61902 66.5637 7.61194 66.5821 7.60428C66.6172 7.59018 66.6546 7.57417 66.6961 7.55564C66.76 7.52622 66.8285 7.49743 66.893 7.47054C67.2073 7.33099 67.5384 7.23502 67.8786 7.18516C68.3006 7.12506 68.729 7.13174 69.1486 7.20497C69.3985 7.2493 69.6432 7.31832 69.8787 7.41102C69.9685 7.44262 70.0606 7.46697 70.1538 7.48396C70.3058 7.48396 70.3191 7.32402 70.5068 7.32402C70.5954 7.34389 70.6812 7.37486 70.7624 7.41614C70.7624 7.41614 70.737 7.45454 70.7365 7.45454C70.391 8.01667 70.1337 8.62819 69.9731 9.26805C69.969 9.2791 69.9656 9.29044 69.9633 9.30195C69.9558 9.33201 69.9477 9.36592 69.9403 9.39603C69.9403 9.39603 72.436 10.4013 72.4417 10.4058C72.459 10.3629 72.8943 9.31284 72.8943 9.31284C72.8943 9.31284 73.3531 9.63276 73.592 9.77352C73.5817 9.96541 73.5834 10.1578 73.5966 10.3495C73.6381 11.0936 73.7722 12.1975 73.8137 12.5398C73.8494 12.5827 73.8776 12.6243 73.9346 12.6243C73.9916 12.6243 74.6387 12.5558 74.8166 12.3178L74.7083 10.6815L74.6277 9.48238L73.7734 7.44556L73.641 7.12949L73.3894 7.73353L72.3554 10.2125L70.1245 9.32947C70.1245 9.32239 70.1245 9.31727 70.1279 9.31025C70.1274 9.30932 70.1268 9.30817 70.1268 9.30708C70.1268 9.30593 70.1274 9.30478 70.1279 9.30386C70.1285 9.29441 70.1308 9.2852 70.1343 9.27634C70.3007 8.60545 70.5747 7.96601 70.946 7.38286C70.9564 7.35471 70.9633 7.33997 70.9633 7.33744C70.9633 7.28816 70.9633 7.29714 70.9518 7.28626L70.3697 7.06484L70.5229 6.67386L70.3755 6.55548L70.4146 6.52157L70.5597 6.40127L70.7848 6.21441L71.0583 5.98597L71.1792 5.88486L71.2241 5.84903L71.1694 5.77352C71.1694 5.77352 71.0813 5.65514 71.0416 5.59371C70.9501 5.45846 70.87 5.31591 70.8021 5.16754C70.7595 5.07347 70.7227 4.98068 70.6916 4.88854C70.6766 4.85474 70.6662 4.8193 70.6593 4.78295C70.6259 4.66514 70.6012 4.54492 70.5851 4.42333C70.5758 4.35399 70.5707 4.28409 70.5701 4.21408V4.18657C70.5724 4.05259 70.611 3.92174 70.6812 3.80775C70.7031 3.7686 70.7296 3.73245 70.7607 3.70024L70.7762 3.68681C70.7992 3.66138 70.8246 3.63744 70.851 3.61513C70.9029 3.57225 70.9599 3.53632 71.0209 3.50827C71.0606 3.48541 71.1021 3.46696 71.1452 3.45324C71.1452 3.41997 71.1452 3.38349 71.151 3.3387C71.1763 3.3387 71.2017 3.34574 71.2247 3.35022C71.2915 3.36056 71.3565 3.37706 71.4204 3.39949C71.425 3.40028 71.4302 3.40179 71.4342 3.40397C71.4147 3.27599 71.2644 3.25103 71.2137 3.18064C71.2017 3.1669 71.1947 3.14916 71.1947 3.13073C71.1947 3.11417 71.1999 3.09803 71.2086 3.08402C71.2281 3.06197 71.2402 3.03414 71.2431 3.00467C71.2437 2.99096 71.2396 2.97744 71.2327 2.96563C71.2276 2.95326 71.2189 2.94261 71.208 2.93492C71.208 2.93492 71.208 2.93492 71.2045 2.93492C71.1965 2.92912 71.1878 2.92398 71.1786 2.91956C71.1671 2.9106 71.1556 2.90165 71.1452 2.89461C71.1349 2.88757 71.1164 2.86645 71.1026 2.85301C70.9748 2.72487 70.8856 2.56311 70.8464 2.38653C70.8464 2.37244 70.8418 2.35965 70.839 2.34365C70.8355 2.32765 70.8343 2.30781 70.8332 2.28862C70.8269 2.22905 70.8269 2.16902 70.8332 2.10945C70.8361 2.09281 70.839 2.07361 70.8418 2.0557C70.8816 1.86149 70.9852 1.6863 71.1372 1.55849C71.1792 1.52343 71.2235 1.49115 71.2702 1.46187C71.2736 1.45975 71.2765 1.45717 71.2794 1.45419C71.3346 1.42081 71.3928 1.39335 71.4538 1.37228C71.4636 1.36814 71.4745 1.36472 71.4849 1.36204C71.4918 1.35924 71.4987 1.35752 71.5062 1.35692C71.5626 1.33894 71.6202 1.32525 71.6789 1.31597C71.7302 1.3082 71.7826 1.30371 71.8344 1.30253C71.8683 1.30253 71.9034 1.30253 71.9357 1.30253C71.9495 1.30253 71.9651 1.30573 71.9771 1.30701C71.9892 1.30829 72.0002 1.30701 72.0111 1.31021H72.0946C72.1245 1.31021 72.1591 1.31021 72.1948 1.31021C72.2034 1.32237 72.212 1.33325 72.2195 1.34605L72.2287 1.35884C72.2575 1.40876 72.28 1.45483 72.2955 1.48682C72.2955 1.4913 72.2995 1.49386 72.303 1.49578C72.3105 1.50829 72.3197 1.5197 72.3306 1.5297C72.4193 1.61161 72.5667 1.63528 72.5995 1.70887C72.6329 1.78246 72.7578 2.03586 72.7578 2.03586C72.7578 2.03586 73.0232 2.33533 73.0232 2.34877C73.0232 2.40508 73.0232 2.43132 73.0589 2.47227C73.1125 2.4575 73.1654 2.43999 73.2172 2.4198C73.2195 2.37799 73.2247 2.33634 73.231 2.29502C73.2357 2.28478 73.4233 2.03906 73.5189 2.0493C73.5437 2.0493 73.8712 2.02242 73.873 2.02242C74.1649 1.79246 74.3675 1.46762 74.4452 1.10416V1.0952C74.4475 1.08945 74.4493 1.08343 74.4498 1.07729C74.4544 1.06267 74.4631 1.04948 74.474 1.03889C74.493 1.02412 74.5149 1.01413 74.5385 1.00979C74.5621 1.00544 74.5863 1.00686 74.6087 1.01394C74.6594 1.02552 74.7072 1.04405 74.7521 1.06897C74.8327 1.11487 74.907 1.17077 74.9732 1.23534C74.995 1.2571 75.0135 1.2763 75.0319 1.29933C75.0733 1.34594 75.1102 1.39652 75.1419 1.45035C75.1695 1.4852 75.1879 1.52583 75.1971 1.5691C75.2058 1.61237 75.2052 1.65712 75.1937 1.69991L75.1856 1.71143C74.9536 2.07562 74.6036 2.34933 74.1942 2.48699C74.1827 2.49189 74.1718 2.49789 74.162 2.50491C74.2432 2.58304 74.303 2.68061 74.3358 2.78838H74.7688V4.03427C74.7688 4.05347 74.7688 4.07074 74.7653 4.08866C74.7613 4.10658 74.7607 4.12642 74.7561 4.14561C74.7515 4.16481 74.7515 4.16865 74.7481 4.18017C74.7325 4.23514 74.7101 4.2877 74.6801 4.33631C74.6738 4.34654 74.6657 4.3555 74.6588 4.36702C74.6122 4.43098 74.5529 4.485 74.485 4.52597C74.417 4.56694 74.3422 4.59404 74.2633 4.60571C74.2345 4.61018 74.2052 4.6121 74.1752 4.61466H73.5719L74.55 5.71465C74.55 5.71465 74.2587 5.95334 74.1591 6.0474C74.2034 6.1106 74.2541 6.16894 74.3099 6.22145C74.3744 6.26113 74.7912 6.29632 74.7578 6.49341C74.755 6.51649 74.7498 6.53921 74.7423 6.56124C74.6945 6.65765 74.6369 6.74862 74.5702 6.83254C74.5022 6.92022 74.3606 6.92793 74.314 7.07318C74.3854 7.12068 74.4395 7.19006 74.4683 7.27089C74.7055 6.99512 74.915 6.69677 75.0941 6.38015C75.5961 6.50813 76.8062 7.18194 77.1252 7.28113C77.3514 7.3421 77.5817 7.38637 77.8143 7.41361C77.7832 7.48828 77.7619 7.56652 77.7504 7.64654C77.7504 7.67596 77.8494 7.70411 77.96 7.77067C78.0193 7.80705 78.0734 7.85161 78.12 7.90314C78.097 8.18086 78.1367 8.4602 78.2375 8.72025C78.2749 8.80926 78.3071 8.90051 78.333 8.99349C78.3428 9.02296 78.3492 9.05238 78.3578 9.0837C78.3728 9.15238 78.3866 9.22325 78.3981 9.2962C78.4113 9.38831 78.4211 9.48238 78.4252 9.57646C78.4252 9.60075 78.4252 9.62574 78.4252 9.65067V9.75625C78.4269 9.77755 78.4269 9.79897 78.4252 9.82027C78.42 9.93668 78.4085 10.0527 78.3895 10.1677C78.3837 10.192 78.3803 10.217 78.3745 10.2439C78.3687 10.2708 78.3601 10.3156 78.3509 10.3488C78.3204 10.4761 78.2795 10.6007 78.2283 10.7212C78.2219 10.7334 78.2162 10.746 78.211 10.759C78.2081 10.768 78.2041 10.775 78.2018 10.782C78.1995 10.7853 78.1978 10.789 78.196 10.7929C78.1839 10.7929 78.1718 10.7852 78.1598 10.782C78.0838 10.7565 78.0112 10.7231 77.9421 10.6822C77.8972 10.654 77.8535 10.6246 77.8143 10.592C77.7706 10.557 77.7297 10.519 77.6917 10.4781C77.7642 10.6332 77.8719 10.7691 78.0066 10.8748C78.0296 10.8914 78.0544 10.9113 78.0792 10.928C78.0976 10.9369 78.1166 10.9444 78.1361 10.9503C78.1361 10.9503 78.4678 11.0559 78.534 11.0693C78.8909 11.1258 79.2433 11.205 79.5893 11.3068C79.6463 11.3259 79.7505 11.1954 80.0642 11.2223C80.203 11.2382 80.3319 11.3003 80.431 11.3987C80.53 11.497 80.5933 11.6258 80.61 11.7643C80.6031 11.9729 80.5144 12.0241 80.4822 12.1444C80.4436 12.2986 80.2041 13.62 80.1776 13.8503C80.1604 13.9988 80.1558 14.2068 80.1558 14.2094C80.1558 14.2304 80.2139 14.4794 80.2197 14.5632C80.2197 14.5798 80.2197 14.5913 80.2197 14.608C80.2197 14.646 80.2168 14.6839 80.2099 14.7213C80.2007 14.7997 80.1753 14.8755 80.1362 14.9439C80.0965 15.0123 80.0435 15.072 79.9802 15.1193C79.9802 15.1269 79.9761 15.1353 79.9727 15.1429C79.9548 15.207 79.933 15.2709 79.9088 15.3349C79.7902 15.6583 79.6048 15.9529 79.3647 16.1994L79.3584 16.1886L78.8788 15.2709L78.8731 15.2607C78.9761 15.0692 79.1074 14.8945 79.2623 14.7424C79.2824 14.7198 79.3037 14.6985 79.3262 14.6784C79.3745 14.6336 79.4258 14.5907 79.4753 14.5504C79.4753 14.5363 79.4753 14.5216 79.4753 14.5082C79.4781 14.4078 79.5023 14.3091 79.5478 14.2193C79.5927 14.1295 79.6572 14.0506 79.7361 13.9886C79.7361 13.9514 79.8075 12.568 79.7505 12.0573C79.5582 12.0276 79.3734 11.9588 79.2087 11.8551C79.1615 11.82 77.6376 11.9665 77.5915 11.9697C77.5455 11.9729 77.4182 11.9121 77.329 11.914C77.2403 11.9159 77.0976 11.9345 77.0446 11.9345C76.9438 11.9345 76.8454 11.9028 76.7636 11.8436C76.6779 11.7813 76.6174 11.6906 76.5921 11.5877C76.5852 11.5648 76.5806 11.5411 76.5794 11.5173V11.4648C76.58 11.4483 76.5811 11.4319 76.584 11.4155C76.584 11.3995 76.5898 11.3829 76.5927 11.3656C76.6042 11.3245 76.6209 11.2851 76.6427 11.2485C76.5587 11.2238 76.4764 11.1915 76.3981 11.1519C76.3244 11.1144 76.253 11.0716 76.1851 11.0239C76.0198 10.9068 75.8793 10.7589 75.7705 10.5882C75.7331 10.5297 75.7003 10.4687 75.6715 10.4058C75.7654 10.792 76.006 11.1267 76.3416 11.3394C76.3376 11.3707 76.3342 11.4034 76.3324 11.4373C76.3301 11.4981 76.3359 11.559 76.3491 11.6184C76.3762 11.7464 76.4372 11.8649 76.5253 11.9614C76.6278 12.0748 76.7613 12.1553 76.9093 12.1924C76.7884 12.6403 76.5218 13.4082 76.5218 13.4639C76.4096 13.8103 76.2685 14.1464 76.0987 14.4685C76.0751 14.8029 76.0262 15.1351 75.953 15.4623C75.9415 15.534 75.9352 15.6065 75.934 15.6792C75.934 15.7368 75.9035 16.0913 75.8828 16.6621C75.8828 16.7107 75.8644 16.7184 75.8644 16.776C75.8673 16.8236 75.8834 16.8695 75.9104 16.9084C75.9104 16.9084 75.915 16.9142 75.9173 16.9174C75.9375 16.9443 75.9582 16.9705 75.9778 16.9974C75.9974 17.0243 76.0302 17.071 76.0561 17.1087C76.1148 17.1968 76.1678 17.2885 76.215 17.3832C76.2386 17.4306 76.261 17.4779 76.2789 17.5253C76.291 17.5456 76.3008 17.567 76.3088 17.5893C76.3917 17.7945 76.4487 18.0095 76.4775 18.2292H75.352C75.3647 18.1639 75.3721 18.0979 75.3756 18.0315C75.3831 17.7745 75.3244 17.5199 75.2058 17.2917C75.1637 17.1756 75.1027 17.0674 75.0244 16.9718C75.0405 16.8072 75.0705 16.6444 75.1136 16.4848C75.1816 16.2983 75.2674 16.1187 75.3698 15.9486C75.3698 15.9486 75.4407 14.5913 75.4407 14.535C75.4407 14.4787 75.3445 13.9879 75.3048 13.7384C75.2702 13.4764 75.196 13.2212 75.0849 12.9814C75.059 12.9314 75.2063 12.7932 75.2512 12.71L75.2236 12.6832C75.2167 12.6826 75.2104 12.6826 75.2035 12.6832C75.1447 12.7344 74.0572 13.062 74.0572 13.062C73.9576 12.9283 73.8448 12.8048 73.721 12.6934C73.2426 12.6582 72.767 12.5978 72.2949 12.5123C71.619 12.3899 70.9547 12.2122 70.3076 11.9812C70.1959 11.9409 70.0899 11.898 69.9875 11.8577C69.9829 11.8625 69.9788 11.8682 69.976 11.8743V11.9319C69.9754 12.0064 69.9702 12.0808 69.9604 12.1546C69.9322 12.4377 69.8568 12.7141 69.7365 12.9717C69.6846 13.0822 69.6213 13.1867 69.5476 13.2834C69.5424 13.2924 69.5378 13.3026 69.5338 13.3103C69.5839 13.4118 69.6207 13.5193 69.6426 13.6302C69.6582 13.6996 69.6691 13.7699 69.6749 13.8407C69.6806 13.9279 69.6806 14.0153 69.6749 14.1024C70.1395 14.663 70.5649 15.2553 70.9478 15.875C70.9506 15.8793 70.9535 15.8838 70.9558 15.8884C71.041 15.9411 71.1113 16.0155 71.1579 16.1042C71.2051 16.1928 71.2276 16.2924 71.2235 16.3927C71.2224 16.4551 71.2137 16.5172 71.1976 16.5776C71.1786 16.6453 71.1475 16.7089 71.1061 16.7658C71.1228 16.8297 71.136 16.8938 71.1464 16.9616C71.1694 17.1043 71.178 17.249 71.1723 17.3935V17.4069C71.1619 17.6215 71.1187 17.8333 71.0439 18.0346C71.0266 18.0745 71.0071 18.1132 70.9846 18.1505L70.1533 17.4517L70.1325 17.4357C70.1711 17.3327 70.2172 17.2324 70.2696 17.1356C70.3254 17.0334 70.3859 16.9343 70.4521 16.8387C70.3507 16.7377 70.2863 16.6053 70.2696 16.4631C70.2673 16.438 70.2661 16.4128 70.2661 16.3876C70.2661 16.3665 70.2661 16.3422 70.2696 16.3191C70.2759 16.1686 70.3237 16.0228 70.4083 15.8981C70.303 15.7144 70.0514 15.3547 69.9725 15.2537C69.8217 15.0644 69.6559 14.8877 69.4768 14.7251C69.3553 14.6641 69.2264 14.6188 69.0928 14.5901C69.1141 14.5901 69.083 14.5901 69.0928 14.5901C69.0289 14.5831 68.8297 14.5504 68.8297 14.5504L68.5275 14.4979H68.5085L68.5833 14.2618C68.5833 14.2573 68.5833 14.2528 68.5833 14.2464C68.5937 14.1586 68.5937 14.07 68.5833 13.9822C68.5758 13.9202 68.5608 13.8594 68.539 13.8011C68.5315 13.7813 68.5217 13.7627 68.5131 13.7435C68.5015 13.7214 68.4883 13.7001 68.4745 13.6795C68.4699 13.6746 68.4658 13.6692 68.4624 13.6635C68.3559 13.5227 68.1112 13.2104 68.0698 13.1618C68.0784 13.1529 68.0865 13.1413 68.0934 13.1337L68.1054 13.119C68.2678 12.9179 68.4054 12.6986 68.5165 12.4656C68.5706 12.3512 68.6184 12.234 68.6599 12.1143C68.7123 11.9633 68.7531 11.8086 68.7831 11.6516C68.7986 11.5787 68.8113 11.5057 68.8228 11.429C68.8216 11.4222 68.8216 11.4152 68.8228 11.4085C68.8735 11.3746 68.923 11.3375 68.9702 11.2991C69.1049 11.192 69.2241 11.0671 69.3254 10.928C69.3893 10.8419 69.4451 10.7505 69.4929 10.6547C69.5033 10.6342 69.5131 10.614 69.5217 10.5939C69.5102 10.6112 69.4987 10.6297 69.486 10.6476C69.3219 10.879 69.1106 11.0723 68.8654 11.2146L68.8395 11.2274C68.8188 11.2403 68.7975 11.2521 68.7756 11.2626C68.7272 11.2884 68.6766 11.3113 68.6253 11.3311C68.6155 11.4021 68.6023 11.4706 68.5879 11.5384C68.5666 11.6388 68.5407 11.7342 68.5119 11.8295C68.4872 11.9127 68.4572 11.9953 68.4255 12.0746C68.3755 12.2064 68.3162 12.3347 68.2482 12.4585C68.1728 12.6001 68.0859 12.7356 67.9892 12.8636C67.9638 12.895 67.9419 12.9276 67.9183 12.9532C67.7284 13.1871 67.5044 13.3903 67.2528 13.556C67.1181 13.6443 66.9753 13.7197 66.8268 13.7813C66.783 13.7992 66.741 13.8171 66.6984 13.8305C66.6201 14.0057 66.5004 14.1593 66.3501 14.2784C66.2695 14.3338 66.197 14.3999 66.1342 14.4749C66.0294 14.6445 65.9511 14.8287 65.9005 15.0214C65.8141 15.3359 65.7456 15.655 65.6961 15.9774C65.6961 16.0312 65.6731 16.2628 65.6731 16.3191C65.6731 16.3754 65.836 16.9232 65.836 16.9826C65.836 16.9855 65.836 16.9883 65.8371 16.991C65.8383 16.9936 65.84 16.996 65.8417 16.998C66.0893 17.1845 66.2833 17.4328 66.4042 17.7179C66.4773 17.8806 66.5263 18.0531 66.5493 18.2298H65.5896C65.5654 18.0771 65.5268 17.927 65.4733 17.7819C65.3829 17.5348 65.251 17.3051 65.0829 17.103C65.0467 17.058 65.0075 17.0152 64.9666 16.975C64.9511 16.9472 64.9425 16.916 64.9419 16.8841C64.9407 16.8784 64.9407 16.8725 64.9419 16.8669C64.9655 16.6688 65.0156 16.475 65.0922 16.2909C65.1227 16.2348 65.1428 16.174 65.1532 16.1111C65.1532 16.0555 65.2493 14.926 65.2424 14.8844C65.148 14.5968 65.0236 14.3197 64.8722 14.0577C64.9269 13.9859 64.9879 13.919 65.0542 13.8574C65.201 13.7467 65.308 13.5916 65.3599 13.4152C65.3696 13.3653 65.4111 13.3614 65.4111 13.3039C65.4128 13.2852 65.4088 13.2665 65.3996 13.2501C65.1831 13.4115 64.92 13.4981 64.6494 13.4971C64.8129 13.3638 64.9361 13.1883 65.0064 12.9898C65.0766 12.7912 65.091 12.5771 65.0484 12.3709C65.0449 12.3523 65.0415 12.3344 65.0369 12.3184" fill="white"/>
<path d="M0 18.0819V4.33301H7.0261V6.65649H2.56536V9.81763H5.9639V12.1411H2.56536V15.7591H7.21234V18.0825L0 18.0819Z" fill="white"/>
<path d="M13.8487 8.16022C13.7074 7.63816 13.4465 7.15617 13.0865 6.75245C12.9398 6.608 12.7653 6.49471 12.5736 6.41939C12.382 6.34406 12.177 6.30826 11.9712 6.31412C11.7776 6.30105 11.5836 6.33002 11.4023 6.39906C11.2211 6.4681 11.0569 6.57556 10.9211 6.71406C10.6648 7.02301 10.5354 7.41778 10.5589 7.81853C10.5603 7.99131 10.5993 8.16177 10.6731 8.31797C10.7469 8.47422 10.8538 8.61256 10.9864 8.72333C11.311 9.01205 11.6664 9.26416 12.046 9.47521C12.4671 9.71667 12.9257 9.97373 13.4218 10.2463C13.9135 10.5161 14.3748 10.8379 14.7976 11.2062C15.2235 11.5801 15.5819 12.0245 15.8573 12.5199C16.1554 13.0821 16.3027 13.712 16.2848 14.3481C16.2927 14.9009 16.1949 15.4502 15.9968 15.9664C15.8134 16.4359 15.5276 16.8586 15.1604 17.204C14.7724 17.56 14.313 17.8294 13.8128 17.9943C13.2313 18.1857 12.6218 18.279 12.0096 18.27C11.0231 18.2929 10.0598 17.9696 9.28681 17.3562C8.42606 16.5794 7.84193 15.5431 7.62305 14.4044L10.1507 13.8541C10.2082 14.2201 10.3177 14.5761 10.4757 14.9112C10.5987 15.1695 10.7654 15.4046 10.9685 15.6061C11.1353 15.7729 11.3346 15.9036 11.554 15.9901C11.7407 16.063 11.939 16.1018 12.1395 16.1046C12.4524 16.092 12.7553 15.9904 13.0126 15.8117C13.2698 15.633 13.4707 15.3845 13.5917 15.0956C13.7126 14.8067 13.7486 14.4892 13.6954 14.1805C13.6422 13.8719 13.502 13.5848 13.2913 13.353C12.9778 13.0188 12.6215 12.7275 12.2317 12.4866C11.8102 12.22 11.3516 11.9566 10.8559 11.6963C10.3697 11.4424 9.90898 11.1424 9.48008 10.8005C9.06539 10.47 8.70821 10.0732 8.42295 9.62622C8.12473 9.13341 7.97619 8.56449 7.99548 7.98871C7.96727 7.47552 8.0424 6.96187 8.21638 6.47821C8.39042 5.99457 8.65974 5.55079 9.00845 5.17317C9.4164 4.80679 9.89436 4.52679 10.4134 4.35006C10.9325 4.17333 11.482 4.10353 12.0288 4.14485C12.5535 4.1376 13.0755 4.22139 13.5716 4.3925C14.0135 4.54808 14.4231 4.78365 14.7797 5.08743C15.1273 5.38671 15.4199 5.74447 15.6442 6.14455C15.878 6.56196 16.0504 7.01086 16.1561 7.47748L13.8487 8.16022Z" fill="white"/>
<path d="M25.2047 4.33301V6.65649H22.2119V18.0819H19.6471V6.65649H16.6543V4.33301H25.2047Z" fill="white"/>
<path d="M23.5332 18.0819L26.8607 4.33301H30.1511L33.3851 18.0819H30.9343L30.2803 15.187H26.7302L26.0071 18.0819H23.5332ZM27.1947 12.8641H29.7416L28.4963 7.30342H28.4591L27.1947 12.8641Z" fill="white"/>
<path d="M33.9238 4.33282H37.4925C38.1521 4.32279 38.8096 4.40901 39.4442 4.58878C39.987 4.74448 40.4843 5.02848 40.8943 5.41681C41.3114 5.83054 41.6264 6.33576 41.8144 6.8924C42.0493 7.60214 42.1715 8.34424 42.1766 9.09175V13.3189C42.1715 14.0665 42.0493 14.8086 41.8144 15.5183C41.6266 16.075 41.3115 16.5802 40.8943 16.9939C40.4844 17.3825 39.987 17.6667 39.4442 17.8226C38.8095 18.0023 38.1521 18.0885 37.4925 18.0785H33.9238V4.33282ZM36.4918 15.7583H37.3837C37.6844 15.7766 37.9857 15.7329 38.2688 15.6298C38.5518 15.5266 38.8106 15.3662 39.0289 15.1586C39.4862 14.5434 39.6952 13.7786 39.6144 13.0163V9.39826C39.6783 8.65985 39.4985 7.92086 39.1025 7.2943C38.8839 7.06338 38.6152 6.8856 38.3171 6.77466C38.0191 6.66376 37.6995 6.6226 37.3831 6.65438H36.4918V15.7583Z" fill="white"/>
<path d="M42.1387 18.0809L45.4661 4.33196H48.7591L51.9931 18.0809H49.5398L48.8871 15.1866H45.3356L44.6106 18.0809H42.1387ZM50.4657 1C50.4065 1.29436 50.3256 1.58395 50.2239 1.86642C50.1302 2.12734 50.0009 2.37411 49.8399 2.59975C49.6867 2.81312 49.4863 2.9883 49.2544 3.11168C48.9899 3.24597 48.696 3.31196 48.3995 3.30364C48.1531 3.30317 47.9079 3.26806 47.6713 3.19934C47.4298 3.1298 47.1975 3.05365 46.9745 2.9709C46.7513 2.88814 46.5314 2.81199 46.3147 2.74245C46.1081 2.67441 45.8922 2.63901 45.6748 2.63751C45.5699 2.63266 45.4654 2.65155 45.3689 2.69277C45.2724 2.73398 45.1864 2.79646 45.1174 2.87555C44.9795 3.03695 44.8837 3.22996 44.8384 3.43738H43.6674C43.7153 3.13833 43.7931 2.84485 43.8997 2.56136C43.9988 2.29302 44.14 2.04222 44.3182 1.81843C44.4881 1.60656 44.7001 1.43225 44.9408 1.30651C45.209 1.17296 45.5058 1.10706 45.8054 1.11454C46.0544 1.11482 46.302 1.15346 46.5393 1.22908C46.7807 1.30502 47.013 1.38437 47.2361 1.46713C47.4593 1.54989 47.67 1.62923 47.8684 1.70517C48.0335 1.77441 48.2097 1.81321 48.3886 1.81972C48.4937 1.82101 48.5979 1.80052 48.6948 1.75955C48.7915 1.71859 48.8788 1.65802 48.9511 1.58167C49.1067 1.42129 49.2131 1.21964 49.2576 1.00064L50.4657 1ZM45.8009 12.8631H48.3477L47.1024 7.30236H47.0653L45.8009 12.8631Z" fill="white"/>
<path d="M52.0255 8.75008C52.0069 8.01996 52.1139 7.29203 52.3416 6.59811C52.5207 6.06477 52.8195 5.57949 53.2151 5.17945C53.5926 4.81426 54.0511 4.54348 54.5531 4.38917C55.6693 4.05908 56.8572 4.05908 57.9734 4.38917C58.4754 4.54348 58.9342 4.81426 59.3113 5.17945C59.7068 5.57959 60.0056 6.06484 60.1847 6.59811C60.4127 7.29208 60.5198 8.01996 60.5008 8.75008V13.6632C60.5198 14.3934 60.4127 15.1213 60.1847 15.8153C60.0056 16.3486 59.7068 16.8338 59.3113 17.2339C58.9342 17.5992 58.4754 17.8701 57.9734 18.0242C56.8572 18.3543 55.6693 18.3543 54.5531 18.0242C54.051 17.8701 53.5925 17.5992 53.2151 17.2339C52.8194 16.8339 52.5206 16.3486 52.3416 15.8153C52.1138 15.1213 52.0069 14.3934 52.0255 13.6632V8.75008ZM54.5909 14.0056C54.5577 14.2797 54.5803 14.5576 54.6572 14.8227C54.7342 15.0879 54.864 15.3347 55.0388 15.5484C55.3951 15.8081 55.8246 15.9481 56.2655 15.9481C56.7064 15.9481 57.1359 15.8081 57.4922 15.5484C57.6671 15.3347 57.7966 15.0879 57.8738 14.8227C57.9509 14.5576 57.9734 14.2797 57.94 14.0056V8.4103C57.9734 8.13631 57.9509 7.85847 57.8738 7.59347C57.7966 7.32847 57.6671 7.08177 57.4922 6.86813C57.136 6.60831 56.7064 6.4683 56.2655 6.4683C55.8246 6.4683 55.3951 6.60831 55.0388 6.86813C54.8641 7.08177 54.7343 7.32847 54.6573 7.59347C54.5804 7.85847 54.5578 8.13631 54.5909 8.4103V14.0056Z" fill="white"/>
</g>
<path d="M119.462 7.26302H112.594V9.28281H117.442C117.199 12.1105 114.776 13.4032 112.594 13.4032C109.686 13.4032 107.181 11.141 107.181 7.99016C107.181 4.9201 109.605 2.49634 112.594 2.49634C114.937 2.49634 116.311 3.9506 116.311 3.9506L117.765 2.49634C117.765 2.49634 115.907 0.476562 112.594 0.476562C108.312 0.476562 105 4.11218 105 7.99016C105 11.7874 108.07 15.5037 112.675 15.5037C116.715 15.5037 119.623 12.7568 119.623 8.71728C119.623 7.74779 119.462 7.26302 119.462 7.26302Z" fill="white"/>
<path d="M125.117 5.80908C122.289 5.80908 120.27 7.99044 120.27 10.5758C120.27 13.1611 122.209 15.4232 125.117 15.4232C127.783 15.4232 129.964 13.4035 129.964 10.5758C129.964 7.4249 127.46 5.80908 125.117 5.80908ZM125.117 7.66727C126.49 7.66727 127.864 8.79835 127.864 10.5758C127.864 12.3532 126.571 13.4843 125.117 13.4843C123.582 13.4843 122.37 12.2724 122.37 10.5758C122.37 8.95994 123.582 7.66727 125.117 7.66727Z" fill="white"/>
<path d="M135.619 5.80908C132.791 5.80908 130.771 7.99044 130.771 10.5758C130.771 13.1611 132.71 15.4232 135.619 15.4232C138.285 15.4232 140.466 13.4035 140.466 10.5758C140.466 7.4249 137.962 5.80908 135.619 5.80908ZM135.7 7.66727C137.073 7.66727 138.447 8.79835 138.447 10.5758C138.447 12.3532 137.154 13.4843 135.7 13.4843C134.165 13.4843 132.953 12.2724 132.953 10.5758C132.953 8.95994 134.084 7.66727 135.7 7.66727Z" fill="white"/>
<path d="M146.041 5.80908C143.455 5.80908 141.436 8.07124 141.436 10.6566C141.436 13.565 143.779 15.504 146.041 15.504C147.414 15.504 148.141 14.9385 148.707 14.2922V15.2617C148.707 16.9583 147.656 17.9278 146.202 17.9278C144.748 17.9278 144.021 16.7967 143.698 16.2312L141.84 17.0391C142.486 18.4125 143.859 19.8668 146.202 19.8668C148.788 19.8668 150.727 18.2509 150.727 14.8577V6.21304H148.707V7.02095C147.98 6.21304 147.172 5.80908 146.041 5.80908ZM146.202 7.66727C147.495 7.66727 148.788 8.71756 148.788 10.5758C148.788 12.434 147.495 13.4843 146.202 13.4843C144.829 13.4843 143.536 12.3532 143.536 10.5758C143.536 8.79835 144.829 7.66727 146.202 7.66727Z" fill="white"/>
<path d="M159.616 5.80908C157.192 5.80908 155.092 7.74807 155.092 10.6566C155.092 13.7266 157.354 15.504 159.858 15.504C161.878 15.504 163.171 14.373 163.898 13.4035L162.201 12.2724C161.797 12.9187 161.07 13.565 159.858 13.565C158.485 13.565 157.839 12.8379 157.516 12.1108L163.979 9.44469L163.656 8.63678C163.009 7.10174 161.555 5.80908 159.616 5.80908ZM159.697 7.66727C160.586 7.66727 161.232 8.15203 161.474 8.71757L157.192 10.495C157.031 9.12151 158.323 7.66727 159.697 7.66727Z" fill="white"/>
<path d="M152.02 15.1807H154.12V0.961426H152.02V15.1807Z" fill="white"/>
<path d="M205.448 15.4041C204.34 15.4041 203.366 14.961 202.524 14.0749C201.726 13.1888 201.283 12.0812 201.283 10.7963C201.283 9.51148 201.682 8.40383 202.524 7.51773C203.366 6.63162 204.296 6.18857 205.448 6.18857C206.112 6.18857 206.688 6.32148 207.22 6.63162C207.752 6.89745 208.151 7.25191 208.416 7.69496H208.505L208.416 6.49871V2.51123H210.056V15.1825H208.461V13.9863H208.372C208.106 14.4293 207.707 14.7838 207.176 15.0496C206.688 15.2269 206.112 15.4041 205.448 15.4041ZM205.714 13.8977C206.467 13.8977 207.132 13.6319 207.663 13.0559C208.195 12.4799 208.461 11.7267 208.461 10.752C208.461 9.77729 208.195 9.0241 207.663 8.44813C207.132 7.87216 206.467 7.60634 205.714 7.60634C204.961 7.60634 204.296 7.87216 203.764 8.44813C203.233 9.0241 202.967 9.7773 202.967 10.7077C202.967 11.6381 203.233 12.3913 203.764 12.9673C204.296 13.5432 204.961 13.8977 205.714 13.8977Z" fill="white"/>
<path d="M172.883 15.0937H171.244V3.97305H167.699V2.42236H176.427V3.97305H172.883V15.0937Z" fill="white"/>
<path d="M178.421 15.0935H176.781V6.40965H178.332V7.82743H178.421C178.598 7.34007 178.908 6.98561 179.44 6.67548C179.971 6.36534 180.459 6.23242 180.946 6.23242C181.433 6.23242 181.832 6.32103 182.187 6.45395L181.566 7.96034C181.345 7.87173 181.079 7.82743 180.68 7.82743C180.104 7.82743 179.572 8.04895 179.129 8.5363C178.686 9.02366 178.465 9.59965 178.465 10.3528V15.0935H178.421Z" fill="white"/>
<path d="M186.573 15.4042C185.244 15.4042 184.181 14.9612 183.383 14.0751C182.541 13.189 182.143 12.0813 182.143 10.7522C182.143 9.4673 182.541 8.40399 183.339 7.47358C184.136 6.54317 185.155 6.1001 186.396 6.1001C187.681 6.1001 188.7 6.49884 189.497 7.34064C190.25 8.18244 190.649 9.29009 190.649 10.7079V11.018H183.782C183.826 11.9041 184.136 12.5687 184.668 13.1003C185.2 13.5877 185.82 13.8535 186.573 13.8535C187.725 13.8535 188.523 13.3662 188.966 12.3472L190.428 12.9674C190.162 13.632 189.674 14.208 189.01 14.651C188.301 15.1384 187.504 15.4042 186.573 15.4042ZM188.921 9.73314C188.877 9.24578 188.655 8.75842 188.257 8.31536C187.858 7.87231 187.193 7.65078 186.396 7.65078C185.776 7.65078 185.288 7.828 184.845 8.22675C184.402 8.6255 184.092 9.11287 183.915 9.73314H188.921Z" fill="white"/>
<path d="M193.795 6.41024V7.60649H193.884C194.106 7.20774 194.504 6.85329 194.992 6.54315C195.479 6.23301 196.055 6.1001 196.631 6.1001C197.694 6.1001 198.536 6.41024 199.112 7.07482C199.688 7.7394 199.954 8.62551 199.954 9.73314V15.0498H198.315V9.99896C198.315 8.40397 197.606 7.60649 196.188 7.60649C195.523 7.60649 194.947 7.87232 194.549 8.40398C194.106 8.93564 193.928 9.55592 193.928 10.2648V15.0498H192.289V6.36595H193.795V6.41024Z" fill="white"/>
<path d="M215.418 15.4038C214.444 15.4038 213.646 15.1823 213.026 14.695C212.406 14.2076 211.918 13.6316 211.652 12.9228L213.114 12.3025C213.557 13.4101 214.355 13.9418 215.463 13.9418C215.95 13.9418 216.393 13.8089 216.703 13.5873C217.013 13.3658 217.191 13.0557 217.191 12.7012C217.191 12.1253 216.792 11.7708 215.994 11.5493L214.222 11.1062C213.646 10.9733 213.159 10.7075 212.627 10.3087C212.095 9.90998 211.874 9.37833 211.874 8.71375C211.874 7.96056 212.228 7.34028 212.893 6.85292C213.557 6.36556 214.399 6.14404 215.33 6.14404C216.083 6.14404 216.792 6.32124 217.368 6.67569C217.988 7.03013 218.387 7.5175 218.653 8.18208L217.235 8.75804C216.925 8.00485 216.26 7.60611 215.241 7.60611C214.754 7.60611 214.355 7.69473 214.001 7.91626C213.69 8.13778 213.513 8.40361 213.513 8.71375C213.513 9.20111 213.912 9.55554 214.665 9.73276L216.393 10.1315C217.191 10.3087 217.811 10.6632 218.21 11.1062C218.608 11.5493 218.785 12.0809 218.785 12.6569C218.785 13.4544 218.475 14.0747 217.811 14.6063C217.235 15.138 216.393 15.4038 215.418 15.4038Z" fill="white"/>
<defs>
<clipPath id="clip0_367_462">
<rect width="81.176" height="17.2715" fill="white" transform="translate(0 1)"/>
</clipPath>
</defs>
</svg>
